<svg xmlns="http://www.w3.org/2000/svg" viewBox="0 0 952.33 414.5"><defs><style>.cls-1{fill:none;}.cls-2{fill:#ffcd00;}.cls-3{fill:#3f3f3f;}.cls-4,.cls-5{fill:#676364;}.cls-5{stroke:#ffcd00;stroke-miterlimit:10;stroke-width:2px;}.cls-6{fill:#fff;}</style></defs><title>image_4</title><g id="Layer_2" data-name="Layer 2"><g id="Layer_1-2" data-name="Layer 1"><rect class="cls-1" width="952.33" height="414.5"/><rect class="cls-2" x="47.25" y="388.06" width="818" height="3"/><circle class="cls-2" cx="862.58" cy="389.56" r="8.25"/><polygon class="cls-2" points="865.25 321.06 858.2 306.76 842.43 304.47 853.84 293.35 851.14 277.64 865.25 285.06 879.36 277.64 876.66 293.35 888.08 304.47 872.3 306.76 865.25 321.06"/><circle class="cls-2" cx="862.58" cy="227.06" r="80.67"/><circle class="cls-3" cx="862.58" cy="227.06" r="75.46"/><path class="cls-4" d="M153.49,206.91a4.65,4.65,0,0,1-.81.75,5.18,5.18,0,0,1-1,.59,6.31,6.31,0,0,1-1.25.39,7.15,7.15,0,0,1-1.43.14,4.72,4.72,0,0,1-2.15-.47,4.66,4.66,0,0,1-1.58-1.29,5.85,5.85,0,0,1-1-1.93,8.4,8.4,0,0,1-.35-2.39V201a8.29,8.29,0,0,1,.33-2.39,6.07,6.07,0,0,1,1-1.94,4.59,4.59,0,0,1,1.54-1.3,4.4,4.4,0,0,1,2.08-.48,5.68,5.68,0,0,1,1.87.29,4,4,0,0,1,1.42.83,3.93,3.93,0,0,1,.94,1.32,5.57,5.57,0,0,1,.44,1.74h-2.19a4.45,4.45,0,0,0-.26-1,2.27,2.27,0,0,0-.47-.74,2,2,0,0,0-.72-.47,2.78,2.78,0,0,0-1-.16,2.08,2.08,0,0,0-1.21.35,2.76,2.76,0,0,0-.84.94,4.63,4.63,0,0,0-.49,1.36,8.6,8.6,0,0,0-.17,1.62v1.69a8.22,8.22,0,0,0,.17,1.62,4.46,4.46,0,0,0,.51,1.36,2.78,2.78,0,0,0,.89.94A2.44,2.44,0,0,0,149,207a5.13,5.13,0,0,0,.65,0,3.72,3.72,0,0,0,.64-.13,2.66,2.66,0,0,0,.55-.24,1.3,1.3,0,0,0,.41-.36l0-2.7h-2.44v-1.74h4.62Z"/><path class="cls-4" d="M161.79,208.78a5.38,5.38,0,0,1-2-.37,4.7,4.7,0,0,1-1.57-1,4.55,4.55,0,0,1-1-1.54,5,5,0,0,1-.36-1.92v-.38a5.71,5.71,0,0,1,.38-2.15,5.08,5.08,0,0,1,1-1.63,4.41,4.41,0,0,1,1.5-1,4.57,4.57,0,0,1,1.8-.36,4.76,4.76,0,0,1,1.93.37,3.81,3.81,0,0,1,1.4,1,4.52,4.52,0,0,1,.85,1.57,6.6,6.6,0,0,1,.29,2v.94h-7a3.29,3.29,0,0,0,.29,1.08,2.89,2.89,0,0,0,.61.87,2.76,2.76,0,0,0,.88.58,2.89,2.89,0,0,0,1.11.21,3.6,3.6,0,0,0,1.55-.33,3.07,3.07,0,0,0,1.16-.92l1.21,1.13a3.64,3.64,0,0,1-.62.7,4.33,4.33,0,0,1-.89.6,5.42,5.42,0,0,1-1.15.43A5.64,5.64,0,0,1,161.79,208.78Zm-.27-8.62a2.21,2.21,0,0,0-.86.17,2.17,2.17,0,0,0-.71.49,2.83,2.83,0,0,0-.53.78,3.81,3.81,0,0,0-.31,1h4.7v-.17a3.21,3.21,0,0,0-.17-.86,2.28,2.28,0,0,0-.42-.74,2,2,0,0,0-.7-.52A2.34,2.34,0,0,0,161.52,200.17Z"/><path class="cls-4" d="M174.2,196.13v2.43H178v1.65H174.2V205a2.78,2.78,0,0,0,.13.94,1.46,1.46,0,0,0,.38.59,1.33,1.33,0,0,0,.57.31,2.69,2.69,0,0,0,.71.09,5.54,5.54,0,0,0,.6,0l.6-.07.54-.09.41-.1.25,1.53a3.32,3.32,0,0,1-.58.25,5.17,5.17,0,0,1-.74.19c-.27,0-.54.09-.83.12s-.57,0-.85,0a4.35,4.35,0,0,1-1.38-.21,2.76,2.76,0,0,1-1.08-.65,3,3,0,0,1-.71-1.13,4.77,4.77,0,0,1-.26-1.66v-4.94h-2.45v-1.65H172v-2.43Z"/><path class="cls-4" d="M201.43,208.6a2,2,0,0,1-.15-.44c0-.17-.08-.35-.11-.54a3.75,3.75,0,0,1-.52.45,3.62,3.62,0,0,1-.65.37,4.12,4.12,0,0,1-.77.25,4.05,4.05,0,0,1-.89.09,4.32,4.32,0,0,1-1.44-.23,3.31,3.31,0,0,1-1.1-.63,2.79,2.79,0,0,1-1-2.14,2.84,2.84,0,0,1,1.2-2.47,5.91,5.91,0,0,1,3.45-.85h1.62v-.66a1.59,1.59,0,0,0-.54-1.27,2.25,2.25,0,0,0-1.52-.47,2.56,2.56,0,0,0-.78.11,1.63,1.63,0,0,0-.56.29,1.2,1.2,0,0,0-.33.44,1.32,1.32,0,0,0-.11.54H195a2.53,2.53,0,0,1,.27-1.14,3,3,0,0,1,.8-1,4.09,4.09,0,0,1,1.29-.69,5.44,5.44,0,0,1,1.75-.26,6,6,0,0,1,1.65.22,3.87,3.87,0,0,1,1.32.65,3,3,0,0,1,.87,1.08,3.39,3.39,0,0,1,.32,1.51v4.47a6.86,6.86,0,0,0,.1,1.2,3.84,3.84,0,0,0,.28.94v.16ZM198.76,207a2.91,2.91,0,0,0,.8-.11,3,3,0,0,0,.68-.28,2.36,2.36,0,0,0,.52-.39,2.22,2.22,0,0,0,.35-.45v-1.88H199.7a3.62,3.62,0,0,0-2,.44,1.41,1.41,0,0,0-.64,1.24,1.56,1.56,0,0,0,.1.57,1.19,1.19,0,0,0,.31.46,1.51,1.51,0,0,0,.53.3A2.34,2.34,0,0,0,198.76,207Z"/><path class="cls-4" d="M222.88,195.09l1.68,5.84,1.86-5.84h2.76V208.6h-2.1V204l.13-5.92-2.08,6.48H224l-1.88-6.25.13,5.7v4.64h-2.1V195.09Z"/><path class="cls-4" d="M239.34,208.6a2,2,0,0,1-.15-.44c0-.17-.08-.35-.11-.54a3.75,3.75,0,0,1-.52.45,3.62,3.62,0,0,1-.65.37,4.12,4.12,0,0,1-.77.25,4.05,4.05,0,0,1-.89.09,4.32,4.32,0,0,1-1.44-.23,3.31,3.31,0,0,1-1.1-.63,2.79,2.79,0,0,1-1-2.14,2.84,2.84,0,0,1,1.2-2.47,5.91,5.91,0,0,1,3.45-.85H239v-.66a1.59,1.59,0,0,0-.54-1.27,2.25,2.25,0,0,0-1.52-.47,2.56,2.56,0,0,0-.78.11,1.63,1.63,0,0,0-.56.29,1.2,1.2,0,0,0-.33.44,1.32,1.32,0,0,0-.11.54H233a2.53,2.53,0,0,1,.27-1.14,3,3,0,0,1,.8-1,4.09,4.09,0,0,1,1.29-.69,5.44,5.44,0,0,1,1.75-.26,6,6,0,0,1,1.65.22,3.87,3.87,0,0,1,1.32.65,3,3,0,0,1,.87,1.08,3.39,3.39,0,0,1,.32,1.51v4.47a6.86,6.86,0,0,0,.1,1.2,3.84,3.84,0,0,0,.28.94v.16ZM236.67,207a2.91,2.91,0,0,0,.8-.11,3,3,0,0,0,.68-.28,2.36,2.36,0,0,0,.52-.39,2.22,2.22,0,0,0,.35-.45v-1.88h-1.41a3.62,3.62,0,0,0-2,.44,1.41,1.41,0,0,0-.64,1.24,1.56,1.56,0,0,0,.1.57,1.19,1.19,0,0,0,.31.46,1.51,1.51,0,0,0,.53.3A2.34,2.34,0,0,0,236.67,207Z"/><path class="cls-4" d="M249.56,204.58l.38,1.21,2.82-7.23h2.46l-5.08,11.56a6.92,6.92,0,0,1-.44.82,4.15,4.15,0,0,1-.66.82,3.43,3.43,0,0,1-.94.63,3,3,0,0,1-1.28.26,3.79,3.79,0,0,1-.62-.05,5.56,5.56,0,0,1-.55-.12l.32-1.72h.81a1,1,0,0,0,.58-.19,2.41,2.41,0,0,0,.45-.44,3.2,3.2,0,0,0,.32-.48c.08-.16.14-.26.18-.32l.66-1.24-4.27-9.57h2.45Z"/><path class="cls-4" d="M267,203.69a7.74,7.74,0,0,1-.25,2,4.83,4.83,0,0,1-.76,1.61,3.55,3.55,0,0,1-1.23,1.06,4,4,0,0,1-3.28.06,3.26,3.26,0,0,1-1.16-.94l-.1,1.08h-2V194.35h2.22v5.17a3.27,3.27,0,0,1,1.11-.84,3.56,3.56,0,0,1,1.51-.3,3.69,3.69,0,0,1,1.7.38A3.49,3.49,0,0,1,266,199.8a4.82,4.82,0,0,1,.76,1.62,7.92,7.92,0,0,1,.25,2.07Zm-2.22-.19a6.67,6.67,0,0,0-.12-1.27,3.35,3.35,0,0,0-.38-1.05,2,2,0,0,0-.71-.72,2.11,2.11,0,0,0-1.1-.26,2.14,2.14,0,0,0-1.29.36,2.35,2.35,0,0,0-.77.95v4.15a2.41,2.41,0,0,0,.77,1,2.15,2.15,0,0,0,1.3.37,2.07,2.07,0,0,0,1.07-.26,2,2,0,0,0,.71-.7,3.22,3.22,0,0,0,.39-1,6.52,6.52,0,0,0,.12-1.29Z"/><path class="cls-4" d="M277.26,208.6a2,2,0,0,1-.15-.44c0-.17-.08-.35-.11-.54a3.75,3.75,0,0,1-.52.45,3.62,3.62,0,0,1-.65.37,4.12,4.12,0,0,1-.77.25,4.05,4.05,0,0,1-.89.09,4.32,4.32,0,0,1-1.44-.23,3.31,3.31,0,0,1-1.1-.63,2.79,2.79,0,0,1-1-2.14,2.84,2.84,0,0,1,1.2-2.47,5.91,5.91,0,0,1,3.45-.85h1.62v-.66a1.59,1.59,0,0,0-.54-1.27,2.25,2.25,0,0,0-1.52-.47,2.56,2.56,0,0,0-.78.11,1.63,1.63,0,0,0-.56.29,1.2,1.2,0,0,0-.33.44,1.32,1.32,0,0,0-.11.54h-2.22a2.53,2.53,0,0,1,.27-1.14,3,3,0,0,1,.8-1,4.09,4.09,0,0,1,1.29-.69,5.44,5.44,0,0,1,1.75-.26,6,6,0,0,1,1.65.22,3.87,3.87,0,0,1,1.32.65,3,3,0,0,1,.87,1.08,3.39,3.39,0,0,1,.32,1.51v4.47a6.86,6.86,0,0,0,.1,1.2,3.84,3.84,0,0,0,.28.94v.16ZM274.58,207a2.91,2.91,0,0,0,.8-.11,3,3,0,0,0,.68-.28,2.36,2.36,0,0,0,.52-.39,2.22,2.22,0,0,0,.35-.45v-1.88h-1.41a3.62,3.62,0,0,0-2,.44,1.41,1.41,0,0,0-.64,1.24,1.56,1.56,0,0,0,.1.57,1.19,1.19,0,0,0,.31.46,1.51,1.51,0,0,0,.53.3A2.34,2.34,0,0,0,274.58,207Z"/><path class="cls-4" d="M285.49,198.56l.14,1.39a3.89,3.89,0,0,1,1.32-1.16,3.6,3.6,0,0,1,1.72-.41,4.23,4.23,0,0,1,1.41.22,2.77,2.77,0,0,1,1.09.7,3.2,3.2,0,0,1,.71,1.22,5.65,5.65,0,0,1,.25,1.81v6.27h-2.22v-6.23a3.23,3.23,0,0,0-.14-1,1.63,1.63,0,0,0-.41-.67,1.51,1.51,0,0,0-.64-.36,3.23,3.23,0,0,0-.86-.11,2.44,2.44,0,0,0-1.28.33,2.52,2.52,0,0,0-.88.88v7.2h-2.23v-10Z"/><path class="cls-4" d="M299.56,204.21l-1.21,1.15v3.24h-2.22V194.35h2.22v8.4l.94-1,3-3.14h2.67L301,202.74l4.47,5.86h-2.76Z"/><path class="cls-4" d="M330.47,204.45a5.43,5.43,0,0,1-.46,1.78,4.24,4.24,0,0,1-2.43,2.25,5.25,5.25,0,0,1-1.85.31,4.6,4.6,0,0,1-2.15-.48A4.45,4.45,0,0,1,322,207a5.7,5.7,0,0,1-.92-1.91,8.88,8.88,0,0,1-.32-2.34v-1.85a8.7,8.7,0,0,1,.33-2.33,5.82,5.82,0,0,1,.93-1.92,4.47,4.47,0,0,1,1.54-1.3,4.56,4.56,0,0,1,2.13-.48,5.34,5.34,0,0,1,1.9.32,4.11,4.11,0,0,1,1.43.89,4.22,4.22,0,0,1,.95,1.4,6.26,6.26,0,0,1,.46,1.84h-2.23a4.53,4.53,0,0,0-.23-1.08,2.62,2.62,0,0,0-.47-.83,1.94,1.94,0,0,0-.75-.53,2.77,2.77,0,0,0-1.06-.19,2.21,2.21,0,0,0-1.26.34,2.57,2.57,0,0,0-.83.92,4.35,4.35,0,0,0-.45,1.34,9.14,9.14,0,0,0-.13,1.6v1.87a9.45,9.45,0,0,0,.13,1.64,4.48,4.48,0,0,0,.44,1.34,2.43,2.43,0,0,0,.82.91,2.27,2.27,0,0,0,1.27.33,2.3,2.3,0,0,0,1.78-.66,3.1,3.1,0,0,0,.72-1.88Z"/><path class="cls-4" d="M340.93,198.38l.54,0,.51.06.45.08a2,2,0,0,1,.34.1l-.32,2.18a9.07,9.07,0,0,0-2-.23,3.13,3.13,0,0,0-1.79.46,2.71,2.71,0,0,0-1,1.29v6.27h-2.22v-10h2.08l.1,1.57a4.62,4.62,0,0,1,1.45-1.28A3.77,3.77,0,0,1,340.93,198.38Z"/><path class="cls-4" d="M351.35,208.78a5.38,5.38,0,0,1-2-.37,4.7,4.7,0,0,1-1.57-1,4.55,4.55,0,0,1-1-1.54,5,5,0,0,1-.36-1.92v-.38a5.71,5.71,0,0,1,.38-2.15,5.08,5.08,0,0,1,1-1.63,4.41,4.41,0,0,1,1.5-1,4.57,4.57,0,0,1,1.8-.36,4.76,4.76,0,0,1,1.93.37,3.81,3.81,0,0,1,1.4,1,4.52,4.52,0,0,1,.85,1.57,6.6,6.6,0,0,1,.29,2v.94h-7a3.29,3.29,0,0,0,.29,1.08,2.89,2.89,0,0,0,.61.87,2.76,2.76,0,0,0,.88.58,2.89,2.89,0,0,0,1.11.21,3.6,3.6,0,0,0,1.55-.33,3.07,3.07,0,0,0,1.16-.92l1.21,1.13a3.64,3.64,0,0,1-.62.7,4.33,4.33,0,0,1-.89.6,5.42,5.42,0,0,1-1.15.43A5.64,5.64,0,0,1,351.35,208.78Zm-.27-8.62a2.21,2.21,0,0,0-.86.17,2.17,2.17,0,0,0-.71.49,2.83,2.83,0,0,0-.53.78,3.81,3.81,0,0,0-.31,1h4.7v-.17a3.21,3.21,0,0,0-.17-.86,2.28,2.28,0,0,0-.42-.74,2,2,0,0,0-.7-.52A2.34,2.34,0,0,0,351.08,200.17Z"/><path class="cls-4" d="M359,203.51a7.38,7.38,0,0,1,.28-2.09,4.94,4.94,0,0,1,.8-1.62,3.55,3.55,0,0,1,2.91-1.42,3.53,3.53,0,0,1,1.46.28,3.26,3.26,0,0,1,1.1.81v-5.12h2.23V208.6h-2l-.11-1a3.19,3.19,0,0,1-1.14.9,3.61,3.61,0,0,1-1.54.31,3.48,3.48,0,0,1-1.64-.38,3.75,3.75,0,0,1-1.25-1.06,5.07,5.07,0,0,1-.8-1.61,7,7,0,0,1-.28-2Zm2.22.2a5.93,5.93,0,0,0,.13,1.27,3.18,3.18,0,0,0,.41,1,2,2,0,0,0,1.78,1,2.16,2.16,0,0,0,1.24-.33,2.37,2.37,0,0,0,.77-.89v-4.36a2.33,2.33,0,0,0-.78-.87,2.15,2.15,0,0,0-1.22-.33,2.06,2.06,0,0,0-1.06.26,2.1,2.1,0,0,0-.72.71,3.37,3.37,0,0,0-.42,1.06,5.85,5.85,0,0,0-.13,1.28Z"/><path class="cls-4" d="M372.44,198.56h5.35v8.2h3v1.84h-8.33v-1.84h3.12v-6.35h-3.12Zm2.93-2.6a1.17,1.17,0,0,1,.33-.86,1.26,1.26,0,0,1,.94-.34,1.29,1.29,0,0,1,1,.34,1.26,1.26,0,0,1,0,1.72,1.29,1.29,0,0,1-1,.34,1.26,1.26,0,0,1-.94-.34A1.17,1.17,0,0,1,375.37,196Z"/><path class="cls-4" d="M389,196.13v2.43h3.79v1.65H389V205a2.78,2.78,0,0,0,.13.94,1.46,1.46,0,0,0,.38.59,1.33,1.33,0,0,0,.57.31,2.69,2.69,0,0,0,.71.09,5.54,5.54,0,0,0,.6,0l.6-.07.54-.09.41-.1.25,1.53a3.32,3.32,0,0,1-.58.25,5.17,5.17,0,0,1-.74.19c-.27,0-.54.09-.83.12s-.57,0-.85,0a4.35,4.35,0,0,1-1.38-.21,2.76,2.76,0,0,1-1.08-.65,3,3,0,0,1-.71-1.13,4.77,4.77,0,0,1-.26-1.66v-4.94h-2.45v-1.65h2.45v-2.43Z"/><path class="cls-4" d="M418.93,204.45a5.43,5.43,0,0,1-.46,1.78,4.24,4.24,0,0,1-2.43,2.25,5.25,5.25,0,0,1-1.85.31,4.6,4.6,0,0,1-2.15-.48A4.45,4.45,0,0,1,410.5,207a5.7,5.7,0,0,1-.92-1.91,8.88,8.88,0,0,1-.32-2.34v-1.85a8.7,8.7,0,0,1,.33-2.33,5.82,5.82,0,0,1,.93-1.92,4.47,4.47,0,0,1,1.54-1.3,4.56,4.56,0,0,1,2.13-.48,5.34,5.34,0,0,1,1.9.32,4.11,4.11,0,0,1,1.43.89,4.22,4.22,0,0,1,.95,1.4,6.26,6.26,0,0,1,.46,1.84H416.7a4.53,4.53,0,0,0-.23-1.08,2.62,2.62,0,0,0-.47-.83,1.94,1.94,0,0,0-.75-.53,2.77,2.77,0,0,0-1.06-.19,2.21,2.21,0,0,0-1.26.34,2.57,2.57,0,0,0-.83.92,4.35,4.35,0,0,0-.45,1.34,9.14,9.14,0,0,0-.13,1.6v1.87a9.45,9.45,0,0,0,.13,1.64,4.48,4.48,0,0,0,.44,1.34,2.43,2.43,0,0,0,.82.91,2.27,2.27,0,0,0,1.27.33,2.3,2.3,0,0,0,1.78-.66,3.1,3.1,0,0,0,.72-1.88Z"/><path class="cls-4" d="M428.9,208.6a2,2,0,0,1-.15-.44c0-.17-.08-.35-.11-.54a3.75,3.75,0,0,1-.52.45,3.62,3.62,0,0,1-.65.37,4.12,4.12,0,0,1-.77.25,4.05,4.05,0,0,1-.89.09,4.32,4.32,0,0,1-1.44-.23,3.31,3.31,0,0,1-1.1-.63,2.79,2.79,0,0,1-1-2.14,2.84,2.84,0,0,1,1.2-2.47,5.91,5.91,0,0,1,3.45-.85h1.62v-.66a1.59,1.59,0,0,0-.54-1.27,2.25,2.25,0,0,0-1.52-.47,2.56,2.56,0,0,0-.78.11,1.63,1.63,0,0,0-.56.29,1.2,1.2,0,0,0-.33.44,1.32,1.32,0,0,0-.11.54h-2.22a2.53,2.53,0,0,1,.27-1.14,3,3,0,0,1,.8-1,4.09,4.09,0,0,1,1.29-.69,5.44,5.44,0,0,1,1.75-.26,6,6,0,0,1,1.65.22,3.87,3.87,0,0,1,1.32.65,3,3,0,0,1,.87,1.08,3.39,3.39,0,0,1,.32,1.51v4.47a6.86,6.86,0,0,0,.1,1.2,3.84,3.84,0,0,0,.28.94v.16ZM426.23,207a2.91,2.91,0,0,0,.8-.11,3,3,0,0,0,.68-.28,2.36,2.36,0,0,0,.52-.39,2.22,2.22,0,0,0,.35-.45v-1.88h-1.41a3.62,3.62,0,0,0-2,.44,1.41,1.41,0,0,0-.64,1.24,1.56,1.56,0,0,0,.1.57,1.19,1.19,0,0,0,.31.46,1.51,1.51,0,0,0,.53.3A2.34,2.34,0,0,0,426.23,207Z"/><path class="cls-4" d="M442,198.38l.54,0,.51.06.45.08a2,2,0,0,1,.34.1l-.32,2.18a9.07,9.07,0,0,0-2-.23,3.13,3.13,0,0,0-1.79.46,2.71,2.71,0,0,0-1,1.29v6.27h-2.22v-10h2.08l.1,1.57a4.62,4.62,0,0,1,1.45-1.28A3.77,3.77,0,0,1,442,198.38Z"/><path class="cls-4" d="M447.48,203.51a7.38,7.38,0,0,1,.28-2.09,4.94,4.94,0,0,1,.8-1.62,3.55,3.55,0,0,1,2.91-1.42,3.53,3.53,0,0,1,1.46.28,3.26,3.26,0,0,1,1.1.81v-5.12h2.23V208.6h-2l-.11-1a3.19,3.19,0,0,1-1.14.9,3.61,3.61,0,0,1-1.54.31,3.48,3.48,0,0,1-1.64-.38,3.75,3.75,0,0,1-1.25-1.06,5.07,5.07,0,0,1-.8-1.61,7,7,0,0,1-.28-2Zm2.22.2a5.93,5.93,0,0,0,.13,1.27,3.18,3.18,0,0,0,.41,1,2,2,0,0,0,1.78,1,2.16,2.16,0,0,0,1.24-.33,2.37,2.37,0,0,0,.77-.89v-4.36a2.33,2.33,0,0,0-.78-.87,2.15,2.15,0,0,0-1.22-.33,2.06,2.06,0,0,0-1.06.26,2.1,2.1,0,0,0-.72.71,3.37,3.37,0,0,0-.42,1.06,5.85,5.85,0,0,0-.13,1.28Z"/><path class="cls-4" d="M481.73,208.6h-2.24l-4.4-9.3v9.3h-2.25V195.09h2.25l4.38,9.27,0-9.27h2.25Z"/><path class="cls-4" d="M485.28,203.49a6.23,6.23,0,0,1,.32-2,4.81,4.81,0,0,1,.92-1.62,4.2,4.2,0,0,1,1.46-1.08,4.71,4.71,0,0,1,2-.39,4.76,4.76,0,0,1,2,.39,4.19,4.19,0,0,1,1.47,1.08,4.74,4.74,0,0,1,.91,1.62,6.31,6.31,0,0,1,.32,2v.19a6.35,6.35,0,0,1-.32,2,4.68,4.68,0,0,1-.91,1.62,4.22,4.22,0,0,1-1.46,1.07,4.71,4.71,0,0,1-2,.39,4.76,4.76,0,0,1-2-.39,4.21,4.21,0,0,1-1.47-1.07,4.75,4.75,0,0,1-.92-1.62,6.27,6.27,0,0,1-.32-2Zm2.22.19a5.56,5.56,0,0,0,.14,1.29,3.31,3.31,0,0,0,.45,1.06,2.21,2.21,0,0,0,.77.72,2.19,2.19,0,0,0,1.1.26,2.12,2.12,0,0,0,1.08-.26,2.22,2.22,0,0,0,.76-.72,3.31,3.31,0,0,0,.45-1.06,5.56,5.56,0,0,0,.14-1.29v-.19a5.48,5.48,0,0,0-.14-1.27,3.25,3.25,0,0,0-.45-1.06,2.3,2.3,0,0,0-.76-.72,2.37,2.37,0,0,0-2.19,0,2.24,2.24,0,0,0-.76.72,3.31,3.31,0,0,0-.44,1.06,5.48,5.48,0,0,0-.14,1.27Z"/><path class="cls-4" d="M500.23,205.3l.06.64.1-.64,1.44-6.74h1.46l1.46,6.81.1.67.08-.73,1-6.75h2l-2,10h-1.87l-1.52-6.72,0-.12,0,.11L501,208.6h-1.86l-2-10h2Z"/><path class="cls-4" d="M513.82,207.5a1.25,1.25,0,0,1,.34-.9,1.27,1.27,0,0,1,1-.36,1.29,1.29,0,0,1,1,.36,1.24,1.24,0,0,1,.34.9,1.2,1.2,0,0,1-.34.88,1.31,1.31,0,0,1-1,.35,1.29,1.29,0,0,1-1-.35A1.21,1.21,0,0,1,513.82,207.5Zm2.35-3.47h-2.1l-.07-8.93h2.25Z"/><rect class="cls-5" x="444.42" y="251.68" width="207.43" height="40" rx="20" ry="20"/><path class="cls-6" d="M511.72,275.41h-3.8l-.91,2.95h-1.45L509.23,267h1.21l3.61,11.38h-1.44Zm-3.41-1.26h3l-1.5-4.94Z"/><path class="cls-6" d="M523,274.23a6.3,6.3,0,0,1-.22,1.69,4.21,4.21,0,0,1-.64,1.36,3,3,0,0,1-1,.91,3,3,0,0,1-1.42.33,3.48,3.48,0,0,1-1.36-.25,2.84,2.84,0,0,1-1-.72v4.06h-1.45v-11.7h1.32l.07.92a2.8,2.8,0,0,1,1-.8,3.25,3.25,0,0,1,1.39-.28,3.09,3.09,0,0,1,1.44.32,3,3,0,0,1,1,.89,4.08,4.08,0,0,1,.64,1.36,6.53,6.53,0,0,1,.22,1.74Zm-1.45-.16a4.93,4.93,0,0,0-.14-1.18,3,3,0,0,0-.42-1,2.12,2.12,0,0,0-.72-.68,2.06,2.06,0,0,0-1-.25,2,2,0,0,0-1.17.32,2.38,2.38,0,0,0-.75.83v4.07a2.39,2.39,0,0,0,.75.82,2.08,2.08,0,0,0,1.19.32,2,2,0,0,0,1-.25,2.14,2.14,0,0,0,.72-.68,3.16,3.16,0,0,0,.42-1,5,5,0,0,0,.14-1.18Z"/><path class="cls-6" d="M532.62,274.23a6.3,6.3,0,0,1-.22,1.69,4.21,4.21,0,0,1-.64,1.36,3,3,0,0,1-1,.91,3,3,0,0,1-1.42.33,3.48,3.48,0,0,1-1.36-.25,2.84,2.84,0,0,1-1-.72v4.06h-1.45v-11.7h1.32l.07.92a2.8,2.8,0,0,1,1-.8,3.25,3.25,0,0,1,1.39-.28,3.09,3.09,0,0,1,1.44.32,3,3,0,0,1,1,.89,4.08,4.08,0,0,1,.64,1.36,6.53,6.53,0,0,1,.22,1.74Zm-1.45-.16a4.93,4.93,0,0,0-.14-1.18,3,3,0,0,0-.42-1,2.12,2.12,0,0,0-.72-.68,2.06,2.06,0,0,0-1-.25,2,2,0,0,0-1.17.32,2.38,2.38,0,0,0-.75.83v4.07a2.39,2.39,0,0,0,.75.82,2.08,2.08,0,0,0,1.19.32,2,2,0,0,0,1-.25,2.14,2.14,0,0,0,.72-.68,3.16,3.16,0,0,0,.42-1,5,5,0,0,0,.14-1.18Z"/><path class="cls-6" d="M535.32,266.36h4.32v10.75h2.76v1.25h-7.08v-1.25h2.88v-9.49h-2.87Z"/><path class="cls-6" d="M547.8,275.36l.38,1,2.58-6.48h1.62l-4.29,9.76a6,6,0,0,1-.38.7,3.55,3.55,0,0,1-.56.68,3,3,0,0,1-.77.52,2.3,2.3,0,0,1-1,.21h-.23l-.25,0-.23,0-.18,0,.23-1.18h.15l.2,0h.34a1,1,0,0,0,.54-.16,2.11,2.11,0,0,0,.44-.39,3.13,3.13,0,0,0,.33-.47l.21-.4.58-1.12-3.64-8.05h1.62Z"/><path class="cls-6" d="M571,278.36h-1.47l-4.41-8.5,0,8.5h-1.46V267h1.47l4.41,8.48,0-8.48H571Z"/><path class="cls-6" d="M573.09,274.05a5.28,5.28,0,0,1,.27-1.7,4.05,4.05,0,0,1,.76-1.36,3.53,3.53,0,0,1,1.21-.91,3.72,3.72,0,0,1,1.6-.33,3.77,3.77,0,0,1,1.61.33,3.52,3.52,0,0,1,1.21.91,4.05,4.05,0,0,1,.76,1.36,5.28,5.28,0,0,1,.27,1.7v.17a5.25,5.25,0,0,1-.27,1.7,4.09,4.09,0,0,1-.76,1.36,3.52,3.52,0,0,1-1.21.91,3.78,3.78,0,0,1-1.6.33,3.83,3.83,0,0,1-1.61-.33,3.51,3.51,0,0,1-1.21-.91,4.09,4.09,0,0,1-.76-1.36,5.25,5.25,0,0,1-.27-1.7Zm1.45.17a4.71,4.71,0,0,0,.15,1.19,3.09,3.09,0,0,0,.45,1,2.24,2.24,0,0,0,.75.68,2.15,2.15,0,0,0,1.05.25,2.12,2.12,0,0,0,1-.25,2.25,2.25,0,0,0,.75-.68,3.09,3.09,0,0,0,.45-1,4.71,4.71,0,0,0,.15-1.19v-.17a4.53,4.53,0,0,0-.15-1.18,3.13,3.13,0,0,0-.45-1,2.24,2.24,0,0,0-.75-.68,2.09,2.09,0,0,0-1.05-.25,2.07,2.07,0,0,0-1,.25,2.26,2.26,0,0,0-.75.68,3.06,3.06,0,0,0-.45,1,4.66,4.66,0,0,0-.15,1.18Z"/><path class="cls-6" d="M584.38,275.3l.17,1.21.21-1.21,1.35-5.39H587l1.34,5.39.23,1.33.21-1.33.94-5.39H591l-1.8,8.45h-1.14l-1.32-5.18-.22-1.31-.21,1.31-1.3,5.18h-1.14l-1.8-8.45h1.28Z"/><path class="cls-6" d="M805.41,229h-4.27l-1,3.31h-1.63l4.13-12.8H804l4.06,12.8h-1.62Zm-3.83-1.42H805L803.29,222Z"/><path class="cls-6" d="M818.13,227.67a7.07,7.07,0,0,1-.25,1.9,4.73,4.73,0,0,1-.72,1.53,3.41,3.41,0,0,1-1.17,1,3.37,3.37,0,0,1-1.6.37,3.9,3.9,0,0,1-1.53-.28,3.18,3.18,0,0,1-1.14-.81V236H810.1V222.81h1.49l.08,1a3.16,3.16,0,0,1,1.15-.9,3.67,3.67,0,0,1,1.56-.31A3.5,3.5,0,0,1,816,223a3.35,3.35,0,0,1,1.18,1,4.62,4.62,0,0,1,.72,1.53,7.33,7.33,0,0,1,.25,2Zm-1.63-.18a5.54,5.54,0,0,0-.15-1.32,3.44,3.44,0,0,0-.47-1.11,2.4,2.4,0,0,0-.81-.76,2.34,2.34,0,0,0-1.18-.28,2.28,2.28,0,0,0-1.31.36,2.72,2.72,0,0,0-.85.94v4.58a2.66,2.66,0,0,0,.84.92,2.33,2.33,0,0,0,1.34.36,2.28,2.28,0,0,0,1.17-.29,2.38,2.38,0,0,0,.81-.77,3.55,3.55,0,0,0,.47-1.12,5.6,5.6,0,0,0,.15-1.33Z"/><path class="cls-6" d="M828.93,227.67a7.07,7.07,0,0,1-.25,1.9,4.73,4.73,0,0,1-.72,1.53,3.41,3.41,0,0,1-1.17,1,3.37,3.37,0,0,1-1.6.37,3.9,3.9,0,0,1-1.53-.28,3.18,3.18,0,0,1-1.14-.81V236H820.9V222.81h1.49l.08,1a3.16,3.16,0,0,1,1.15-.9,3.67,3.67,0,0,1,1.56-.31,3.5,3.5,0,0,1,1.62.36,3.35,3.35,0,0,1,1.18,1,4.62,4.62,0,0,1,.72,1.53,7.33,7.33,0,0,1,.25,2Zm-1.63-.18a5.54,5.54,0,0,0-.15-1.32,3.44,3.44,0,0,0-.47-1.11,2.4,2.4,0,0,0-.81-.76,2.34,2.34,0,0,0-1.18-.28,2.28,2.28,0,0,0-1.31.36,2.72,2.72,0,0,0-.85.94v4.58a2.66,2.66,0,0,0,.84.92,2.33,2.33,0,0,0,1.34.36,2.28,2.28,0,0,0,1.17-.29,2.38,2.38,0,0,0,.81-.77,3.55,3.55,0,0,0,.47-1.12,5.6,5.6,0,0,0,.15-1.33Z"/><path class="cls-6" d="M832,218.82h4.86v12.09h3.1v1.41h-8v-1.41h3.23V220.23H832Z"/><path class="cls-6" d="M846,228.94l.42,1.15,2.9-7.29h1.82l-4.83,11a6.74,6.74,0,0,1-.43.78,4,4,0,0,1-.63.76,3.34,3.34,0,0,1-.86.59,2.58,2.58,0,0,1-1.13.24H843l-.28,0-.26,0-.2,0,.26-1.33h.17l.22,0h.39a1.07,1.07,0,0,0,.61-.18,2.32,2.32,0,0,0,.49-.44,3.43,3.43,0,0,0,.37-.53l.24-.45.65-1.27-4.1-9.06h1.82Z"/><path class="cls-6" d="M872.44,226.66a9.87,9.87,0,0,1-.12,1.38,7.75,7.75,0,0,1-.34,1.35,5.9,5.9,0,0,1-.58,1.21,4.33,4.33,0,0,1-.85,1,3.77,3.77,0,0,1-1.13.66,4.34,4.34,0,0,1-2.86,0,3.75,3.75,0,0,1-1.13-.66,4.39,4.39,0,0,1-.85-1,6,6,0,0,1-.59-1.22,7.59,7.59,0,0,1-.35-1.34,9.22,9.22,0,0,1-.12-1.38V225.2a9.58,9.58,0,0,1,.12-1.38,7.34,7.34,0,0,1,.34-1.35,6.21,6.21,0,0,1,.59-1.22,4.39,4.39,0,0,1,.85-1,3.73,3.73,0,0,1,1.13-.67,4.35,4.35,0,0,1,2.86,0,3.76,3.76,0,0,1,1.13.66,4.32,4.32,0,0,1,.85,1,6.25,6.25,0,0,1,.59,1.22,7.47,7.47,0,0,1,.34,1.35,10,10,0,0,1,.12,1.39Zm-1.61-1.48q0-.46-.06-1a6.66,6.66,0,0,0-.18-1,5.24,5.24,0,0,0-.34-.93,3.08,3.08,0,0,0-.53-.78,2.29,2.29,0,0,0-1.75-.73,2.31,2.31,0,0,0-1,.2,2.42,2.42,0,0,0-.75.54,3.07,3.07,0,0,0-.53.78,5.32,5.32,0,0,0-.34.93,7,7,0,0,0-.18,1c0,.33-.06.65-.07.95v1.48c0,.3,0,.62.07.95a6.53,6.53,0,0,0,.19,1,5.64,5.64,0,0,0,.34.94,3,3,0,0,0,.53.79,2.4,2.4,0,0,0,.75.54,2.33,2.33,0,0,0,1,.2,2.37,2.37,0,0,0,1-.2,2.35,2.35,0,0,0,.75-.54,3,3,0,0,0,.52-.78,5.7,5.7,0,0,0,.33-.93,6.56,6.56,0,0,0,.18-1c0-.33.05-.65.06-1Z"/><path class="cls-6" d="M876.37,222.81l.11,1.41a3.79,3.79,0,0,1,1.27-1.16,3.51,3.51,0,0,1,1.69-.43,4.14,4.14,0,0,1,1.36.21,2.6,2.6,0,0,1,1,.66,3,3,0,0,1,.66,1.14,5.15,5.15,0,0,1,.23,1.64v6h-1.63v-6a3.55,3.55,0,0,0-.14-1.07,1.7,1.7,0,0,0-.42-.71,1.63,1.63,0,0,0-.68-.4A3.13,3.13,0,0,0,879,224a2.54,2.54,0,0,0-1.44.41,3,3,0,0,0-1,1.08v6.82h-1.63v-9.51Z"/><path class="cls-6" d="M886,218.82h4.86v12.09h3.1v1.41h-8v-1.41h3.23V220.23H886Z"/><path class="cls-6" d="M896.77,222.81h4.86v8.1h3.1v1.41h-8v-1.41H900v-6.69h-3.23Zm3-2.5a1,1,0,0,1,.24-.68,1.11,1.11,0,0,1,1.46,0,1,1,0,0,1,.25.68.93.93,0,0,1-.25.66,1.15,1.15,0,0,1-1.46,0A.94.94,0,0,1,899.8,220.31Z"/><path class="cls-6" d="M908.78,222.81l.11,1.41a3.79,3.79,0,0,1,1.27-1.16,3.51,3.51,0,0,1,1.69-.43,4.14,4.14,0,0,1,1.36.21,2.6,2.6,0,0,1,1,.66,3,3,0,0,1,.66,1.14,5.15,5.15,0,0,1,.23,1.64v6h-1.63v-6a3.55,3.55,0,0,0-.14-1.07,1.7,1.7,0,0,0-.42-.71,1.63,1.63,0,0,0-.68-.4,3.13,3.13,0,0,0-.92-.12,2.54,2.54,0,0,0-1.44.41,3,3,0,0,0-1,1.08v6.82h-1.63v-9.51Z"/><path class="cls-6" d="M922.32,232.49a4.83,4.83,0,0,1-1.84-.34,4.18,4.18,0,0,1-1.44-1,4.38,4.38,0,0,1-.93-1.46,5,5,0,0,1-.33-1.84v-.37a5.45,5.45,0,0,1,.37-2.06,4.73,4.73,0,0,1,1-1.54,4.29,4.29,0,0,1,1.39-1,4,4,0,0,1,1.6-.33,4.25,4.25,0,0,1,1.8.36,3.55,3.55,0,0,1,1.28,1,4.19,4.19,0,0,1,.76,1.48,6.49,6.49,0,0,1,.25,1.85V228h-6.79a3.76,3.76,0,0,0,.25,1.22,3.18,3.18,0,0,0,.62,1,2.83,2.83,0,0,0,.94.67,2.89,2.89,0,0,0,1.2.25,3.31,3.31,0,0,0,1.55-.35,3.36,3.36,0,0,0,1.13-.93l1,.77a3.84,3.84,0,0,1-.59.69,4.17,4.17,0,0,1-.82.58,4.58,4.58,0,0,1-1.05.41A5.07,5.07,0,0,1,922.32,232.49Zm-.21-8.53a2.41,2.41,0,0,0-1.72.71,3,3,0,0,0-.59.85,4,4,0,0,0-.34,1.16h5.12v-.12a3.67,3.67,0,0,0-.18-.94,2.64,2.64,0,0,0-.45-.83,2.27,2.27,0,0,0-.75-.6A2.36,2.36,0,0,0,922.11,224Z"/></g></g></svg>