<svg xmlns="http://www.w3.org/2000/svg" viewBox="0 0 952.33 414.5"><defs><style>.cls-1{fill:none;}.cls-2{fill:#ffcd00;}.cls-3{fill:#3f3f3f;}.cls-4{fill:#fff;}.cls-5,.cls-6{fill:#676364;}.cls-6{stroke:#ffcd00;stroke-miterlimit:10;stroke-width:2px;}</style></defs><title>image_2</title><g id="Layer_2" data-name="Layer 2"><g id="Layer_1-2" data-name="Layer 1"><rect class="cls-1" width="952.33" height="414.5"/><rect class="cls-2" x="47.25" y="399.98" width="818" height="3"/><circle class="cls-2" cx="862.58" cy="401.48" r="8.25"/><polygon class="cls-2" points="865.25 332.98 858.2 318.69 842.43 316.4 853.84 305.27 851.14 289.57 865.25 296.98 879.36 289.57 876.66 305.27 888.08 316.4 872.3 318.69 865.25 332.98"/><circle class="cls-2" cx="862.58" cy="238.98" r="80.67"/><circle class="cls-3" cx="862.58" cy="238.98" r="75.46"/><path class="cls-4" d="M824.63,210h3.3v5.6a9.06,9.06,0,0,1-3.28.59,3.76,3.76,0,0,1-3.2-1.56,7.14,7.14,0,0,1-1.15-4.32,6.64,6.64,0,0,1,1.27-4.3A4.24,4.24,0,0,1,825,204.4a5.45,5.45,0,0,1,2.7.67l-.56,1.27a4.39,4.39,0,0,0-2.19-.66,2.68,2.68,0,0,0-2.34,1.21,5.9,5.9,0,0,0-.84,3.38q0,4.59,3.08,4.59a5.91,5.91,0,0,0,1.58-.23v-3.41h-1.85Z"/><path class="cls-4" d="M837.54,212h-6q.06,2.93,2.69,2.93a7.17,7.17,0,0,0,2.89-.59v1.25a6.83,6.83,0,0,1-2.84.59,4.1,4.1,0,0,1-3.06-1.17,4.39,4.39,0,0,1-1.15-3.21,4.84,4.84,0,0,1,1.06-3.29,3.57,3.57,0,0,1,2.83-1.21,3.47,3.47,0,0,1,2.64,1,3.9,3.9,0,0,1,1,2.79Zm-6-1.16H836q0-2.38-2.12-2.38T831.53,210.81Z"/><path class="cls-4" d="M846.55,214.81v1.08a8.26,8.26,0,0,1-2,.25q-2.83,0-2.83-2.69v-5h-2.09v-.73l2.09-.38.6-2.24h.82v2.29h3.42v1.07h-3.42v5a1.34,1.34,0,0,0,1.5,1.52A13.81,13.81,0,0,0,846.55,214.81Z"/><path class="cls-4" d="M866.06,216h-6.58V204.56h6.58v1.28h-5.12v3.53h4.82v1.27h-4.82v4.06h5.13Z"/><path class="cls-4" d="M871.37,211.59l-3.07-4.18h1.62l2.27,3.2,2.27-3.2h1.62L873,211.59l3.23,4.4H874.6l-2.42-3.41L869.75,216h-1.62Z"/><path class="cls-4" d="M885,214.81v1.08a8.26,8.26,0,0,1-2,.25q-2.83,0-2.83-2.69v-5h-2.09v-.73l2.09-.38.6-2.24h.82v2.29H885v1.07h-3.42v5a1.34,1.34,0,0,0,1.5,1.52A13.81,13.81,0,0,0,885,214.81Z"/><path class="cls-4" d="M894.86,207.6l-.38,1.3a5.14,5.14,0,0,0-1.75-.35,2.59,2.59,0,0,0-2,.72,2.91,2.91,0,0,0-.69,2.09V216h-1.42v-8.58h1.16L890,209H890a4,4,0,0,1,1.27-1.33,3.26,3.26,0,0,1,1.67-.4A5.4,5.4,0,0,1,894.86,207.6Z"/><path class="cls-4" d="M903.18,216l-.29-1.19h-.06a3.53,3.53,0,0,1-1.23,1.05,3.91,3.91,0,0,1-1.63.29,2.82,2.82,0,0,1-2-.67,2.44,2.44,0,0,1-.72-1.88q0-2.59,4-2.72l1.59-.05v-.54a1.66,1.66,0,0,0-1.91-1.84,6.3,6.3,0,0,0-2.56.64l-.49-1.07a6.78,6.78,0,0,1,3-.75,3.92,3.92,0,0,1,2.57.68,2.72,2.72,0,0,1,.79,2.18V216Zm-.38-4.2-1.27.05a4.52,4.52,0,0,0-2.17.48,1.42,1.42,0,0,0-.64,1.28q0,1.39,1.56,1.39a2.58,2.58,0,0,0,1.83-.64,2.33,2.33,0,0,0,.68-1.79Z"/><path class="cls-4" d="M808,275.44q-3.38,0-3.38-4.79t3.39-4.76a2.85,2.85,0,0,1,2.49,1.24,7.6,7.6,0,0,1,0,7.07A2.87,2.87,0,0,1,808,275.44Zm0-1a1.71,1.71,0,0,0,1.61-.92,6,6,0,0,0,.51-2.82,5.9,5.9,0,0,0-.52-2.83,1.71,1.71,0,0,0-1.59-.9q-2.14,0-2.14,3.73T808,274.41Z"/><path class="cls-4" d="M817.51,275.32v-4.49q0-1.65-1.51-1.65-1.95,0-1.95,2.53v3.61h-1.16v-7h.93l.17.94h.06a2.31,2.31,0,0,1,2.13-1.07,2.22,2.22,0,0,1,2.47,2.55v4.55Z"/><path class="cls-4" d="M831.36,270.73l2.42-4.69h1.28L832,271.71v3.61h-1.19v-3.55L827.69,266H829Z"/><path class="cls-4" d="M839.15,275.44a2.89,2.89,0,0,1-2.26-1,4.42,4.42,0,0,1,0-5.27,3,3,0,0,1,2.32-1,2.9,2.9,0,0,1,2.27,1,3.77,3.77,0,0,1,.88,2.62,3.84,3.84,0,0,1-.87,2.65A3,3,0,0,1,839.15,275.44Zm0-1q2,0,2-2.67t-2-2.64q-2,0-2,2.64T839.18,274.49Z"/><path class="cls-4" d="M848.94,275.32l-.17-.93h-.06a2.32,2.32,0,0,1-2.12,1.06,2.22,2.22,0,0,1-2.48-2.54v-4.55h1.16v4.49q0,1.65,1.5,1.65a1.79,1.79,0,0,0,1.49-.59,3.11,3.11,0,0,0,.47-1.93v-3.62h1.15v7Z"/><path class="cls-4" d="M857.61,268.51l-.31,1.05a4.18,4.18,0,0,0-1.42-.29,2.11,2.11,0,0,0-1.6.59,2.37,2.37,0,0,0-.56,1.7v3.76h-1.16v-7h.94l.14,1.28h.05a3.21,3.21,0,0,1,1-1.08,2.65,2.65,0,0,1,1.36-.32A4.38,4.38,0,0,1,857.61,268.51Z"/><path class="cls-4" d="M867.34,275.32V266h2.17a4.08,4.08,0,0,1,3.13,1.2,4.73,4.73,0,0,1,1.12,3.35,4.9,4.9,0,0,1-1.16,3.51,4.42,4.42,0,0,1-3.35,1.22Zm1.19-8.27v7.25h.61q3.38,0,3.38-3.67T869.39,267Z"/><path class="cls-4" d="M881.24,272.05h-4.91q0,2.38,2.18,2.38a5.84,5.84,0,0,0,2.35-.48v1a5.54,5.54,0,0,1-2.31.48,3.33,3.33,0,0,1-2.49-.95,3.57,3.57,0,0,1-.93-2.61,3.93,3.93,0,0,1,.86-2.68,2.9,2.9,0,0,1,2.3-1,2.82,2.82,0,0,1,2.15.85,3.17,3.17,0,0,1,.8,2.27Zm-4.89-.94H880q0-1.94-1.73-1.94T876.36,271.11Z"/><path class="cls-4" d="M884.25,274.43h-.08q.08.82.08,1v3h-1.15V268.35H884l.17.94h.05a2.29,2.29,0,0,1,2-1.07,2.38,2.38,0,0,1,2,.95,5.22,5.22,0,0,1,0,5.32,2.57,2.57,0,0,1-4-.05Zm0-2.88v.26a3.63,3.63,0,0,0,.44,2.05,1.61,1.61,0,0,0,1.41.61q1.73,0,1.73-2.68t-1.74-2.63a1.63,1.63,0,0,0-1.39.56A3.18,3.18,0,0,0,884.25,271.56Z"/><path class="cls-4" d="M893.76,275.44a2.9,2.9,0,0,1-2.26-1,4.42,4.42,0,0,1,0-5.27,3,3,0,0,1,2.32-1,2.9,2.9,0,0,1,2.27,1,3.76,3.76,0,0,1,.88,2.62,3.83,3.83,0,0,1-.87,2.65A3,3,0,0,1,893.76,275.44Zm0-1q2,0,2-2.67t-2-2.64q-2,0-2,2.64T893.79,274.49Z"/><path class="cls-4" d="M899,275V274a5.77,5.77,0,0,0,2.35.55q1.75,0,1.75-1a.81.81,0,0,0-.31-.63,5.46,5.46,0,0,0-1.44-.67,4.85,4.85,0,0,1-1.86-1,1.64,1.64,0,0,1-.38-1.09,1.56,1.56,0,0,1,.71-1.36,3.39,3.39,0,0,1,2-.49,5.85,5.85,0,0,1,2.34.47l-.38.95a5.63,5.63,0,0,0-2-.46q-1.5,0-1.5.84a.73.73,0,0,0,.32.62,7.25,7.25,0,0,0,1.48.64,4.81,4.81,0,0,1,1.78,1,1.63,1.63,0,0,1,.44,1.16,1.75,1.75,0,0,1-.74,1.49,3.51,3.51,0,0,1-2.1.54A5.11,5.11,0,0,1,899,275Z"/><path class="cls-4" d="M908.93,269.26l-1.71-.13v-.78h2.86v6.06l2.23.13v.78h-5.57v-.78l2.18-.13Zm.58-3.78q.67,0,.67.72a.7.7,0,0,1-.2.55.68.68,0,0,1-.47.18q-.68,0-.68-.73T909.51,265.48Z"/><path class="cls-4" d="M919.77,274.36v.88a6.65,6.65,0,0,1-1.6.2q-2.3,0-2.3-2.18v-4h-1.7v-.6l1.7-.31.49-1.82H917v1.86h2.78v.87H917v4a1.09,1.09,0,0,0,1.22,1.24A11.21,11.21,0,0,0,919.77,274.36Z"/><path class="cls-4" d="M854.83,249.9h-.09q.09,1,.09,1.27v3.66h-1.42V242.41h1.15l.21,1.16h.06a2.82,2.82,0,0,1,2.52-1.31,2.93,2.93,0,0,1,2.46,1.17,6.42,6.42,0,0,1,0,6.55,3.17,3.17,0,0,1-5-.07Zm0-3.54v.32a4.45,4.45,0,0,0,.54,2.53,2,2,0,0,0,1.73.75q2.13,0,2.13-3.3t-2.14-3.23a2,2,0,0,0-1.71.69A3.9,3.9,0,0,0,854.83,246.36Z"/><path class="cls-4" d="M866.57,248.63q1.19,0,1.19,1.3t-1.19,1.3q-1.18,0-1.18-1.3T866.57,248.63Z"/><path class="cls-4" d="M878.37,251l-.29-1.19H878a3.53,3.53,0,0,1-1.23,1.05,3.91,3.91,0,0,1-1.63.29,2.82,2.82,0,0,1-2-.67,2.44,2.44,0,0,1-.72-1.88q0-2.59,4-2.72l1.59-.05v-.54a1.66,1.66,0,0,0-1.91-1.84,6.3,6.3,0,0,0-2.56.64L873,243a6.78,6.78,0,0,1,3-.75,3.92,3.92,0,0,1,2.57.68,2.72,2.72,0,0,1,.79,2.18V251Zm-.38-4.2-1.27.05a4.52,4.52,0,0,0-2.17.48,1.42,1.42,0,0,0-.64,1.28q0,1.39,1.56,1.39a2.58,2.58,0,0,0,1.83-.64,2.33,2.33,0,0,0,.68-1.79Z"/><path class="cls-4" d="M886.56,238.83l-.34,3.07,3.1-.87.21,1.51-3,.22,1.92,2.55-1.4.75-1.37-2.8-1.23,2.8-1.45-.75,1.89-2.55-2.93-.22.23-1.51,3.05.87-.34-3.07Z"/><path class="cls-4" d="M844.29,255.67h-3.7V236.5q0-2.56.17-7.58a29.14,29.14,0,0,1-2.54,2.37l-3.09,2.54-2-2.58,8-6.28h3.15Z"/><path class="cls-4" d="M854.22,231.33a2.57,2.57,0,0,1-2.06-.92,3.72,3.72,0,0,1-.78-2.49,3.68,3.68,0,0,1,.77-2.49,2.65,2.65,0,0,1,2.11-.89,2.59,2.59,0,0,1,2.05.91,3.63,3.63,0,0,1,.79,2.47,3.76,3.76,0,0,1-.77,2.5A2.61,2.61,0,0,1,854.22,231.33Zm0-1.16q1.36,0,1.36-2.25t-1.36-2.2q-1.38,0-1.38,2.2T854.24,230.17Zm7.46-5.46L854.58,239H853l7.12-14.28Zm-1.2,14.45a2.57,2.57,0,0,1-2.06-.92,4.35,4.35,0,0,1,0-5,2.65,2.65,0,0,1,2.11-.89,2.59,2.59,0,0,1,2.05.91,3.63,3.63,0,0,1,.79,2.47,3.75,3.75,0,0,1-.77,2.49A2.61,2.61,0,0,1,860.5,239.16Zm0-1.15q1.36,0,1.36-2.25t-1.36-2.2q-1.38,0-1.38,2.2T860.52,238Z"/><path class="cls-5" d="M152.42,213.11a4.65,4.65,0,0,1-.81.75,5.18,5.18,0,0,1-1,.59,6.31,6.31,0,0,1-1.25.39,7.15,7.15,0,0,1-1.43.14,4.72,4.72,0,0,1-2.15-.47,4.66,4.66,0,0,1-1.58-1.29,5.85,5.85,0,0,1-1-1.93,8.4,8.4,0,0,1-.35-2.39v-1.67a8.29,8.29,0,0,1,.33-2.39,6.07,6.07,0,0,1,1-1.94,4.59,4.59,0,0,1,1.54-1.3,4.4,4.4,0,0,1,2.08-.48,5.68,5.68,0,0,1,1.87.29,4,4,0,0,1,1.42.83,3.93,3.93,0,0,1,.94,1.32,5.57,5.57,0,0,1,.44,1.74h-2.19a4.45,4.45,0,0,0-.26-1,2.27,2.27,0,0,0-.47-.74,2,2,0,0,0-.72-.47,2.78,2.78,0,0,0-1-.16,2.08,2.08,0,0,0-1.21.35,2.76,2.76,0,0,0-.84.94,4.63,4.63,0,0,0-.49,1.36,8.6,8.6,0,0,0-.17,1.62v1.69a8.22,8.22,0,0,0,.17,1.62,4.46,4.46,0,0,0,.51,1.36,2.78,2.78,0,0,0,.89.94,2.44,2.44,0,0,0,1.32.36,5.13,5.13,0,0,0,.65,0,3.72,3.72,0,0,0,.64-.13,2.66,2.66,0,0,0,.55-.24,1.3,1.3,0,0,0,.41-.36l0-2.7h-2.44V208h4.62Z"/><path class="cls-5" d="M160.73,215a5.38,5.38,0,0,1-2-.37,4.7,4.7,0,0,1-1.57-1,4.55,4.55,0,0,1-1-1.54,5,5,0,0,1-.36-1.92v-.38a5.71,5.71,0,0,1,.38-2.15,5.08,5.08,0,0,1,1-1.63,4.41,4.41,0,0,1,1.5-1,4.57,4.57,0,0,1,1.8-.36,4.76,4.76,0,0,1,1.93.37,3.81,3.81,0,0,1,1.4,1,4.52,4.52,0,0,1,.85,1.57,6.6,6.6,0,0,1,.29,2v.94h-7a3.29,3.29,0,0,0,.29,1.08,2.89,2.89,0,0,0,.61.87,2.76,2.76,0,0,0,.88.58,2.89,2.89,0,0,0,1.11.21,3.6,3.6,0,0,0,1.55-.33,3.07,3.07,0,0,0,1.16-.92l1.21,1.13a3.64,3.64,0,0,1-.62.7,4.33,4.33,0,0,1-.89.6,5.42,5.42,0,0,1-1.15.43A5.64,5.64,0,0,1,160.73,215Zm-.27-8.62a2.21,2.21,0,0,0-.86.17,2.17,2.17,0,0,0-.71.49,2.83,2.83,0,0,0-.53.78,3.81,3.81,0,0,0-.31,1h4.7v-.17a3.21,3.21,0,0,0-.17-.86,2.28,2.28,0,0,0-.42-.74,2,2,0,0,0-.7-.52A2.34,2.34,0,0,0,160.46,206.36Z"/><path class="cls-5" d="M173.13,202.33v2.43h3.79v1.65h-3.79v4.81a2.78,2.78,0,0,0,.13.94,1.46,1.46,0,0,0,.38.59,1.33,1.33,0,0,0,.57.31,2.69,2.69,0,0,0,.71.09,5.54,5.54,0,0,0,.6,0l.6-.07.54-.09.41-.1.25,1.53a3.32,3.32,0,0,1-.58.25,5.17,5.17,0,0,1-.74.19c-.27,0-.54.09-.83.12s-.57,0-.85,0a4.35,4.35,0,0,1-1.38-.21,2.76,2.76,0,0,1-1.08-.65,3,3,0,0,1-.71-1.13,4.77,4.77,0,0,1-.26-1.66v-4.94h-2.45v-1.65h2.45v-2.43Z"/><path class="cls-5" d="M201.82,208.74h-5.56V213h6.5v1.82H194V201.29h8.67v1.84h-6.44v3.81h5.56Z"/><path class="cls-5" d="M211,208.16l2.39-3.4h2.47l-3.54,4.94L216,214.8H213.5L211,211.28l-2.48,3.52h-2.48l3.65-5.09-3.54-4.94h2.46Z"/><path class="cls-5" d="M223.68,202.33v2.43h3.79v1.65h-3.79v4.81a2.78,2.78,0,0,0,.13.94,1.46,1.46,0,0,0,.38.59,1.33,1.33,0,0,0,.57.31,2.69,2.69,0,0,0,.71.09,5.54,5.54,0,0,0,.6,0l.6-.07.54-.09.41-.1.25,1.53a3.32,3.32,0,0,1-.58.25,5.17,5.17,0,0,1-.74.19c-.27,0-.54.09-.83.12s-.57,0-.85,0a4.35,4.35,0,0,1-1.38-.21,2.76,2.76,0,0,1-1.08-.65,3,3,0,0,1-.71-1.13,4.77,4.77,0,0,1-.26-1.66v-4.94H219v-1.65h2.45v-2.43Z"/><path class="cls-5" d="M238.77,204.57l.54,0,.51.06.45.08a2,2,0,0,1,.34.1L240.3,207a9.07,9.07,0,0,0-2-.23,3.13,3.13,0,0,0-1.79.46,2.71,2.71,0,0,0-1,1.29v6.27h-2.22v-10h2.08l.1,1.57A4.62,4.62,0,0,1,236.9,205,3.77,3.77,0,0,1,238.77,204.57Z"/><path class="cls-5" d="M250.92,214.8a2,2,0,0,1-.15-.44c0-.17-.08-.35-.11-.54a3.75,3.75,0,0,1-.52.45,3.62,3.62,0,0,1-.65.37,4.12,4.12,0,0,1-.77.25,4.05,4.05,0,0,1-.89.09,4.32,4.32,0,0,1-1.44-.23,3.31,3.31,0,0,1-1.1-.63,2.79,2.79,0,0,1-1-2.14,2.84,2.84,0,0,1,1.2-2.47,5.91,5.91,0,0,1,3.45-.85h1.62V208a1.59,1.59,0,0,0-.54-1.27,2.25,2.25,0,0,0-1.52-.47,2.56,2.56,0,0,0-.78.11,1.63,1.63,0,0,0-.56.29,1.2,1.2,0,0,0-.33.44,1.32,1.32,0,0,0-.11.54h-2.22a2.53,2.53,0,0,1,.27-1.14,3,3,0,0,1,.8-1,4.09,4.09,0,0,1,1.29-.69,5.44,5.44,0,0,1,1.75-.26,6,6,0,0,1,1.65.22,3.87,3.87,0,0,1,1.32.65,3,3,0,0,1,.87,1.08,3.39,3.39,0,0,1,.32,1.51v4.47a6.86,6.86,0,0,0,.1,1.2,3.84,3.84,0,0,0,.28.94v.16Zm-2.67-1.61a2.91,2.91,0,0,0,.8-.11,3,3,0,0,0,.68-.28,2.36,2.36,0,0,0,.52-.39,2.22,2.22,0,0,0,.35-.45v-1.88h-1.41a3.62,3.62,0,0,0-2,.44,1.41,1.41,0,0,0-.64,1.24,1.56,1.56,0,0,0,.1.57,1.19,1.19,0,0,0,.31.46,1.51,1.51,0,0,0,.53.3A2.34,2.34,0,0,0,248.25,213.19Z"/><path class="cls-5" d="M270,201.29h8v1.85h-2.92V213h2.92v1.84h-8V213h2.86v-9.83H270Z"/><path class="cls-5" d="M284.43,204.76l.14,1.39a3.89,3.89,0,0,1,1.32-1.16,3.6,3.6,0,0,1,1.72-.41,4.23,4.23,0,0,1,1.41.22,2.77,2.77,0,0,1,1.09.7,3.2,3.2,0,0,1,.71,1.22,5.65,5.65,0,0,1,.25,1.81v6.27h-2.22v-6.23a3.23,3.23,0,0,0-.14-1,1.63,1.63,0,0,0-.41-.67,1.51,1.51,0,0,0-.64-.36,3.23,3.23,0,0,0-.86-.11,2.44,2.44,0,0,0-1.28.33,2.52,2.52,0,0,0-.88.88v7.2h-2.23v-10Z"/><path class="cls-5" d="M299.51,202.33v2.43h3.79v1.65h-3.79v4.81a2.78,2.78,0,0,0,.13.94,1.46,1.46,0,0,0,.38.59,1.33,1.33,0,0,0,.57.31,2.69,2.69,0,0,0,.71.09,5.54,5.54,0,0,0,.6,0l.6-.07L303,213l.41-.1.25,1.53a3.32,3.32,0,0,1-.58.25,5.17,5.17,0,0,1-.74.19c-.27,0-.54.09-.83.12s-.57,0-.85,0a4.35,4.35,0,0,1-1.38-.21,2.76,2.76,0,0,1-1.08-.65,3,3,0,0,1-.71-1.13,4.77,4.77,0,0,1-.26-1.66v-4.94h-2.45v-1.65h2.45v-2.43Z"/><path class="cls-5" d="M314.59,204.57l.54,0,.51.06.45.08a2,2,0,0,1,.34.1l-.32,2.18a9.07,9.07,0,0,0-2-.23,3.13,3.13,0,0,0-1.79.46,2.71,2.71,0,0,0-1,1.29v6.27h-2.22v-10h2.08l.1,1.57a4.62,4.62,0,0,1,1.45-1.28A3.77,3.77,0,0,1,314.59,204.57Z"/><path class="cls-5" d="M325,215a5.38,5.38,0,0,1-2-.37,4.7,4.7,0,0,1-1.57-1,4.55,4.55,0,0,1-1-1.54,5,5,0,0,1-.36-1.92v-.38a5.71,5.71,0,0,1,.38-2.15,5.08,5.08,0,0,1,1-1.63,4.41,4.41,0,0,1,1.5-1,4.57,4.57,0,0,1,1.8-.36,4.76,4.76,0,0,1,1.93.37,3.81,3.81,0,0,1,1.4,1,4.52,4.52,0,0,1,.85,1.57,6.6,6.6,0,0,1,.29,2v.94h-7a3.29,3.29,0,0,0,.29,1.08,2.89,2.89,0,0,0,.61.87,2.76,2.76,0,0,0,.88.58,2.89,2.89,0,0,0,1.11.21,3.6,3.6,0,0,0,1.55-.33,3.07,3.07,0,0,0,1.16-.92l1.21,1.13a3.64,3.64,0,0,1-.62.7,4.33,4.33,0,0,1-.89.6,5.42,5.42,0,0,1-1.15.43A5.64,5.64,0,0,1,325,215Zm-.27-8.62a2.21,2.21,0,0,0-.86.17,2.17,2.17,0,0,0-.71.49,2.83,2.83,0,0,0-.53.78,3.81,3.81,0,0,0-.31,1H327v-.17a3.21,3.21,0,0,0-.17-.86,2.28,2.28,0,0,0-.42-.74,2,2,0,0,0-.7-.52A2.34,2.34,0,0,0,324.75,206.36Z"/><path class="cls-5" d="M339.52,212.08a1,1,0,0,0-.1-.46,1,1,0,0,0-.37-.38,3.08,3.08,0,0,0-.72-.32,10.64,10.64,0,0,0-1.17-.29,11.71,11.71,0,0,1-1.61-.45,5.2,5.2,0,0,1-1.23-.62,2.67,2.67,0,0,1-.79-.84,2.16,2.16,0,0,1-.28-1.11,2.49,2.49,0,0,1,.29-1.16,3,3,0,0,1,.82-1,4.14,4.14,0,0,1,1.3-.66,5.57,5.57,0,0,1,1.71-.25,5.93,5.93,0,0,1,1.8.25,4.15,4.15,0,0,1,1.34.68,3,3,0,0,1,.84,1,2.75,2.75,0,0,1,.29,1.25h-2.22a1.31,1.31,0,0,0-.13-.57,1.42,1.42,0,0,0-.39-.49,2,2,0,0,0-.64-.34,2.85,2.85,0,0,0-.89-.13,3.11,3.11,0,0,0-.87.11,2,2,0,0,0-.61.28,1.1,1.1,0,0,0-.36.4,1.07,1.07,0,0,0-.12.48,1.13,1.13,0,0,0,.09.46.9.9,0,0,0,.33.37,2.51,2.51,0,0,0,.67.3,9.12,9.12,0,0,0,1.1.26,12.17,12.17,0,0,1,1.7.42,5.2,5.2,0,0,1,1.29.61,2.64,2.64,0,0,1,.82.86,2.28,2.28,0,0,1,.29,1.16,2.5,2.5,0,0,1-.31,1.22,2.88,2.88,0,0,1-.87,1,4.32,4.32,0,0,1-1.36.63,6.57,6.57,0,0,1-1.78.22,5.82,5.82,0,0,1-1.93-.29,4.44,4.44,0,0,1-1.4-.77,3.23,3.23,0,0,1-.86-1.08,2.77,2.77,0,0,1-.29-1.22h2.15a1.59,1.59,0,0,0,.24.79,1.66,1.66,0,0,0,.55.52,2.44,2.44,0,0,0,.74.29,3.85,3.85,0,0,0,.83.09A2.9,2.9,0,0,0,339,213,1,1,0,0,0,339.52,212.08Z"/><path class="cls-5" d="M350.06,202.33v2.43h3.79v1.65h-3.79v4.81a2.78,2.78,0,0,0,.13.94,1.46,1.46,0,0,0,.38.59,1.33,1.33,0,0,0,.57.31,2.69,2.69,0,0,0,.71.09,5.54,5.54,0,0,0,.6,0l.6-.07.54-.09.41-.1.25,1.53a3.32,3.32,0,0,1-.58.25,5.17,5.17,0,0,1-.74.19c-.27,0-.54.09-.83.12s-.57,0-.85,0a4.35,4.35,0,0,1-1.38-.21,2.76,2.76,0,0,1-1.08-.65,3,3,0,0,1-.71-1.13,4.77,4.77,0,0,1-.26-1.66v-4.94h-2.45v-1.65h2.45v-2.43Z"/><path class="cls-5" d="M377.49,210.15l1-8.86h2.08l-1.72,13.51h-2.13l-1.47-9-1.46,9h-2.12l-1.73-13.51H372l1,8.81,1.38-8.81h1.74Z"/><path class="cls-5" d="M384,204.76h5.35V213h3v1.84H384V213h3.12v-6.35H384Zm2.93-2.6a1.17,1.17,0,0,1,.33-.86,1.26,1.26,0,0,1,.94-.34,1.29,1.29,0,0,1,1,.34,1.26,1.26,0,0,1,0,1.72,1.29,1.29,0,0,1-1,.34,1.26,1.26,0,0,1-.94-.34A1.17,1.17,0,0,1,386.94,202.16Z"/><path class="cls-5" d="M400.61,202.33v2.43h3.79v1.65h-3.79v4.81a2.78,2.78,0,0,0,.13.94,1.46,1.46,0,0,0,.38.59,1.33,1.33,0,0,0,.57.31,2.69,2.69,0,0,0,.71.09,5.54,5.54,0,0,0,.6,0l.6-.07.54-.09.41-.1.25,1.53a3.32,3.32,0,0,1-.58.25,5.17,5.17,0,0,1-.74.19c-.27,0-.54.09-.83.12s-.57,0-.85,0a4.35,4.35,0,0,1-1.38-.21,2.76,2.76,0,0,1-1.08-.65,3,3,0,0,1-.71-1.13,4.77,4.77,0,0,1-.26-1.66v-4.94h-2.45v-1.65h2.45v-2.43Z"/><path class="cls-5" d="M411,206.15a3.81,3.81,0,0,1,1.27-1.16,3.36,3.36,0,0,1,1.67-.42,4.27,4.27,0,0,1,1.43.23,2.83,2.83,0,0,1,1.12.72,3.34,3.34,0,0,1,.72,1.25,5.71,5.71,0,0,1,.26,1.83v6.19h-2.22v-6.21a3,3,0,0,0-.14-1,1.82,1.82,0,0,0-.41-.68,1.64,1.64,0,0,0-.65-.4,2.89,2.89,0,0,0-2.14.17,2.59,2.59,0,0,0-.91.81v7.29H408.8V200.55H411Z"/><path class="cls-5" d="M436.66,201.29l1.68,5.84,1.86-5.84H443V214.8h-2.1v-4.64l.13-5.92-2.08,6.48h-1.17l-1.88-6.25.13,5.7v4.64h-2.1V201.29Z"/><path class="cls-5" d="M453.11,214.8a2,2,0,0,1-.15-.44c0-.17-.08-.35-.11-.54a3.75,3.75,0,0,1-.52.45,3.62,3.62,0,0,1-.65.37,4.12,4.12,0,0,1-.77.25,4.05,4.05,0,0,1-.89.09,4.32,4.32,0,0,1-1.44-.23,3.31,3.31,0,0,1-1.1-.63,2.79,2.79,0,0,1-1-2.14,2.84,2.84,0,0,1,1.2-2.47,5.91,5.91,0,0,1,3.45-.85h1.62V208a1.59,1.59,0,0,0-.54-1.27,2.25,2.25,0,0,0-1.52-.47,2.56,2.56,0,0,0-.78.11,1.63,1.63,0,0,0-.56.29,1.2,1.2,0,0,0-.33.44,1.32,1.32,0,0,0-.11.54h-2.22a2.53,2.53,0,0,1,.27-1.14,3,3,0,0,1,.8-1,4.09,4.09,0,0,1,1.29-.69,5.44,5.44,0,0,1,1.75-.26,6,6,0,0,1,1.65.22,3.87,3.87,0,0,1,1.32.65,3,3,0,0,1,.87,1.08A3.39,3.39,0,0,1,455,208v4.47a6.86,6.86,0,0,0,.1,1.2,3.84,3.84,0,0,0,.28.94v.16Zm-2.67-1.61a2.91,2.91,0,0,0,.8-.11,3,3,0,0,0,.68-.28,2.36,2.36,0,0,0,.52-.39,2.22,2.22,0,0,0,.35-.45v-1.88h-1.41a3.62,3.62,0,0,0-2,.44,1.41,1.41,0,0,0-.64,1.24,1.56,1.56,0,0,0,.1.57,1.19,1.19,0,0,0,.31.46,1.51,1.51,0,0,0,.53.3A2.34,2.34,0,0,0,450.44,213.19Z"/><path class="cls-5" d="M463.33,210.78l.38,1.21,2.82-7.23H469l-5.08,11.56a6.92,6.92,0,0,1-.44.82,4.15,4.15,0,0,1-.66.82,3.43,3.43,0,0,1-.94.63,3,3,0,0,1-1.28.26,3.79,3.79,0,0,1-.62-.05,5.56,5.56,0,0,1-.55-.12l.32-1.72h.81a1,1,0,0,0,.58-.19,2.41,2.41,0,0,0,.45-.44,3.2,3.2,0,0,0,.32-.48c.08-.16.14-.26.18-.32l.66-1.24-4.27-9.57h2.45Z"/><path class="cls-5" d="M471.92,214.8V201.29h4.31a7.73,7.73,0,0,1,1.82.22,4.45,4.45,0,0,1,1.48.66,3.17,3.17,0,0,1,1,1.14,3.42,3.42,0,0,1,.35,1.64,2.76,2.76,0,0,1-.56,1.71,3.56,3.56,0,0,1-1.47,1.1,3.52,3.52,0,0,1,1,.45,2.87,2.87,0,0,1,.74.7,3.14,3.14,0,0,1,.46.9,3.48,3.48,0,0,1,.16,1.05,3.86,3.86,0,0,1-.35,1.7,3.41,3.41,0,0,1-1,1.22,4.41,4.41,0,0,1-1.48.75,6.65,6.65,0,0,1-1.85.26Zm2.24-7.82h2.13a3.62,3.62,0,0,0,.93-.13,2.2,2.2,0,0,0,.75-.37,1.83,1.83,0,0,0,.5-.6,1.75,1.75,0,0,0,.19-.82,2,2,0,0,0-.18-.87,1.58,1.58,0,0,0-.5-.59,2.14,2.14,0,0,0-.76-.34,4.32,4.32,0,0,0-1-.12h-2.12Zm0,1.7V213h2.43a3.06,3.06,0,0,0,1-.16,2.35,2.35,0,0,0,.75-.42,1.91,1.91,0,0,0,.5-.66,2,2,0,0,0,.18-.87,2.49,2.49,0,0,0-.16-.91,1.84,1.84,0,0,0-.46-.68,2.06,2.06,0,0,0-.72-.43,3,3,0,0,0-1-.16Z"/><path class="cls-5" d="M491,214.8a2,2,0,0,1-.15-.44c0-.17-.08-.35-.11-.54a3.75,3.75,0,0,1-.52.45,3.62,3.62,0,0,1-.65.37,4.12,4.12,0,0,1-.77.25,4.05,4.05,0,0,1-.89.09,4.32,4.32,0,0,1-1.44-.23,3.31,3.31,0,0,1-1.1-.63,2.79,2.79,0,0,1-1-2.14,2.84,2.84,0,0,1,1.2-2.47,5.91,5.91,0,0,1,3.45-.85h1.62V208a1.59,1.59,0,0,0-.54-1.27,2.25,2.25,0,0,0-1.52-.47,2.56,2.56,0,0,0-.78.11,1.63,1.63,0,0,0-.56.29,1.2,1.2,0,0,0-.33.44,1.32,1.32,0,0,0-.11.54h-2.22a2.53,2.53,0,0,1,.27-1.14,3,3,0,0,1,.8-1,4.09,4.09,0,0,1,1.29-.69,5.44,5.44,0,0,1,1.75-.26,6,6,0,0,1,1.65.22,3.87,3.87,0,0,1,1.32.65,3,3,0,0,1,.87,1.08,3.39,3.39,0,0,1,.32,1.51v4.47a6.86,6.86,0,0,0,.1,1.2,3.84,3.84,0,0,0,.28.94v.16Zm-2.67-1.61a2.91,2.91,0,0,0,.8-.11,3,3,0,0,0,.68-.28,2.36,2.36,0,0,0,.52-.39,2.22,2.22,0,0,0,.35-.45v-1.88h-1.41a3.62,3.62,0,0,0-2,.44,1.41,1.41,0,0,0-.64,1.24,1.56,1.56,0,0,0,.1.57,1.19,1.19,0,0,0,.31.46,1.51,1.51,0,0,0,.53.3A2.34,2.34,0,0,0,488.36,213.19Z"/><path class="cls-5" d="M499.27,204.76l.14,1.39a3.89,3.89,0,0,1,1.32-1.16,3.6,3.6,0,0,1,1.72-.41,4.23,4.23,0,0,1,1.41.22,2.77,2.77,0,0,1,1.09.7,3.2,3.2,0,0,1,.71,1.22,5.65,5.65,0,0,1,.25,1.81v6.27H503.7v-6.23a3.23,3.23,0,0,0-.14-1,1.63,1.63,0,0,0-.41-.67,1.51,1.51,0,0,0-.64-.36,3.23,3.23,0,0,0-.86-.11,2.44,2.44,0,0,0-1.28.33,2.52,2.52,0,0,0-.88.88v7.2h-2.23v-10Z"/><path class="cls-5" d="M513.33,210.41l-1.21,1.15v3.24h-2.22V200.55h2.22v8.4l.94-1,3-3.14h2.67l-3.88,4.17,4.47,5.86h-2.76Z"/><path class="cls-5" d="M531.15,214.8h-9.07v-1.53l4.4-4.8q.56-.62.93-1.1a6.81,6.81,0,0,0,.6-.88,3.33,3.33,0,0,0,.32-.74,2.67,2.67,0,0,0,.09-.7,2.49,2.49,0,0,0-.14-.86,2,2,0,0,0-.41-.68,1.83,1.83,0,0,0-.64-.44,2.14,2.14,0,0,0-.84-.16,2.23,2.23,0,0,0-1.78.66,2.69,2.69,0,0,0-.57,1.82H521.8a4.36,4.36,0,0,1,.32-1.67,4,4,0,0,1,.92-1.37,4.34,4.34,0,0,1,1.45-.92,5.64,5.64,0,0,1,3.7-.05,3.77,3.77,0,0,1,1.32.8,3.38,3.38,0,0,1,.82,1.22,4.18,4.18,0,0,1,.28,1.55,3.68,3.68,0,0,1-.21,1.22,5.87,5.87,0,0,1-.57,1.17,9.69,9.69,0,0,1-.86,1.17q-.5.59-1.09,1.21L524.83,213h6.32Z"/><path class="cls-5" d="M541.61,213.42a3.74,3.74,0,0,1-1.24,1.16,3.25,3.25,0,0,1-1.63.41,4,4,0,0,1-1.42-.24,2.7,2.7,0,0,1-1.1-.76,3.67,3.67,0,0,1-.71-1.34,6.53,6.53,0,0,1-.26-2v-5.94h2.22v6a5.58,5.58,0,0,0,.11,1.2,1.84,1.84,0,0,0,.33.75,1.21,1.21,0,0,0,.56.39,2.44,2.44,0,0,0,.8.12,2.65,2.65,0,0,0,1.44-.35,2.19,2.19,0,0,0,.83-.94v-7.12h2.23v10h-2Z"/><path class="cls-5" d="M145.75,244.62v5.18h-2.23V236.29H148a5.91,5.91,0,0,1,1.87.3,4.33,4.33,0,0,1,1.48.83,3.76,3.76,0,0,1,1,1.32,4.21,4.21,0,0,1,.35,1.75,4.05,4.05,0,0,1-.35,1.71,3.77,3.77,0,0,1-1,1.3,4.33,4.33,0,0,1-1.48.83,6,6,0,0,1-1.87.3Zm0-1.8H148a2.78,2.78,0,0,0,1-.17,2.23,2.23,0,0,0,.76-.48,2,2,0,0,0,.48-.73,2.52,2.52,0,0,0,.17-.93,2.75,2.75,0,0,0-.17-1,2.16,2.16,0,0,0-.48-.77,2.19,2.19,0,0,0-.76-.5,2.86,2.86,0,0,0-1-.19h-2.29Z"/><path class="cls-5" d="M162.95,239.57l.54,0,.51.06.45.08a2,2,0,0,1,.34.1l-.32,2.18a9.07,9.07,0,0,0-2-.23,3.13,3.13,0,0,0-1.79.46,2.71,2.71,0,0,0-1,1.29v6.27h-2.22v-10h2.08l.1,1.57a4.62,4.62,0,0,1,1.45-1.28A3.77,3.77,0,0,1,162.95,239.57Z"/><path class="cls-5" d="M169.17,239.76h5.35V248h3v1.84h-8.33V248h3.12v-6.35h-3.12Zm2.93-2.6a1.17,1.17,0,0,1,.33-.86,1.26,1.26,0,0,1,.94-.34,1.29,1.29,0,0,1,1,.34,1.26,1.26,0,0,1,0,1.72,1.29,1.29,0,0,1-1,.34,1.26,1.26,0,0,1-.94-.34A1.17,1.17,0,0,1,172.1,237.16Z"/><path class="cls-5" d="M182.61,239.76l.05,1.06a2.33,2.33,0,0,1,.8-.91,2.15,2.15,0,0,1,1.21-.33,2,2,0,0,1,1.06.25,1.57,1.57,0,0,1,.64.79,2.28,2.28,0,0,1,.76-.76,2.12,2.12,0,0,1,1.12-.28,2.47,2.47,0,0,1,.9.16,1.74,1.74,0,0,1,.71.51,2.52,2.52,0,0,1,.45.9,4.67,4.67,0,0,1,.16,1.32v7.33h-2.06v-7.35a1.08,1.08,0,0,0-.25-.83,1,1,0,0,0-.65-.23.93.93,0,0,0-.6.18,1,1,0,0,0-.32.48v7.75h-2v-7.35a1.15,1.15,0,0,0-.24-.82.87.87,0,0,0-.64-.24,1,1,0,0,0-.61.17,1.07,1.07,0,0,0-.34.46v7.78h-2.06v-10Z"/><path class="cls-5" d="M200.37,249.8a2,2,0,0,1-.15-.44c0-.17-.08-.35-.11-.54a3.75,3.75,0,0,1-.52.45,3.62,3.62,0,0,1-.65.37,4.12,4.12,0,0,1-.77.25,4.05,4.05,0,0,1-.89.09,4.32,4.32,0,0,1-1.44-.23,3.31,3.31,0,0,1-1.1-.63,2.79,2.79,0,0,1-1-2.14,2.84,2.84,0,0,1,1.2-2.47,5.91,5.91,0,0,1,3.45-.85H200V243a1.59,1.59,0,0,0-.54-1.27,2.25,2.25,0,0,0-1.52-.47,2.56,2.56,0,0,0-.78.11,1.63,1.63,0,0,0-.56.29,1.2,1.2,0,0,0-.33.44,1.32,1.32,0,0,0-.11.54H194a2.53,2.53,0,0,1,.27-1.14,3,3,0,0,1,.8-1,4.09,4.09,0,0,1,1.29-.69,5.44,5.44,0,0,1,1.75-.26,6,6,0,0,1,1.65.22,3.87,3.87,0,0,1,1.32.65,3,3,0,0,1,.87,1.08,3.39,3.39,0,0,1,.32,1.51v4.47a6.86,6.86,0,0,0,.1,1.2,3.84,3.84,0,0,0,.28.94v.16Zm-2.67-1.61a2.91,2.91,0,0,0,.8-.11,3,3,0,0,0,.68-.28,2.36,2.36,0,0,0,.52-.39A2.22,2.22,0,0,0,200,247v-1.88h-1.41a3.62,3.62,0,0,0-2,.44,1.41,1.41,0,0,0-.64,1.24,1.56,1.56,0,0,0,.1.57,1.19,1.19,0,0,0,.31.46,1.51,1.51,0,0,0,.53.3A2.34,2.34,0,0,0,197.7,248.19Z"/><path class="cls-5" d="M213.5,239.57l.54,0,.51.06.45.08a2,2,0,0,1,.34.1L215,242a9.07,9.07,0,0,0-2-.23,3.13,3.13,0,0,0-1.79.46,2.71,2.71,0,0,0-1,1.29v6.27H208v-10h2.08l.1,1.57a4.62,4.62,0,0,1,1.45-1.28A3.77,3.77,0,0,1,213.5,239.57Z"/><path class="cls-5" d="M223.22,245.78l.38,1.21,2.82-7.23h2.46l-5.08,11.56a6.92,6.92,0,0,1-.44.82,4.15,4.15,0,0,1-.66.82,3.43,3.43,0,0,1-.94.63,3,3,0,0,1-1.28.26,3.79,3.79,0,0,1-.62-.05,5.56,5.56,0,0,1-.55-.12l.32-1.72h.81a1,1,0,0,0,.58-.19,2.41,2.41,0,0,0,.45-.44,3.2,3.2,0,0,0,.32-.48c.08-.16.14-.26.18-.32l.66-1.24-4.27-9.57h2.45Z"/><path class="cls-5" d="M251,246.66h-4.22l-.93,3.14h-2.3l4.39-13.51h2l4.3,13.51h-2.29Zm-3.65-1.9h3.1l-1.53-5.3Z"/><path class="cls-5" d="M261.54,248.22a2.45,2.45,0,0,0,.79-.13,2.28,2.28,0,0,0,.68-.36,1.76,1.76,0,0,0,.47-.55,1.34,1.34,0,0,0,.16-.69h2.1a2.78,2.78,0,0,1-.33,1.36,3.62,3.62,0,0,1-.92,1.11,4.7,4.7,0,0,1-2.94,1,4.85,4.85,0,0,1-2-.4,4.12,4.12,0,0,1-1.46-1.09,4.66,4.66,0,0,1-.88-1.61,6.35,6.35,0,0,1-.29-1.94v-.33a6.4,6.4,0,0,1,.29-1.95,4.61,4.61,0,0,1,.88-1.61,4.21,4.21,0,0,1,1.46-1.09,4.78,4.78,0,0,1,2-.4,5,5,0,0,1,1.68.28,4,4,0,0,1,1.34.78,3.5,3.5,0,0,1,.87,1.2,3.59,3.59,0,0,1,.3,1.52h-2.1a1.84,1.84,0,0,0-.58-1.4,2.17,2.17,0,0,0-.68-.43,2.25,2.25,0,0,0-.85-.16,2.08,2.08,0,0,0-1.9,1,3.2,3.2,0,0,0-.39,1,6.1,6.1,0,0,0-.12,1.19V245a6.13,6.13,0,0,0,.12,1.2,3.18,3.18,0,0,0,.39,1,2.18,2.18,0,0,0,.74.74A2.21,2.21,0,0,0,261.54,248.22Z"/><path class="cls-5" d="M274.18,248.22a2.45,2.45,0,0,0,.79-.13,2.28,2.28,0,0,0,.68-.36,1.76,1.76,0,0,0,.47-.55,1.34,1.34,0,0,0,.16-.69h2.1a2.78,2.78,0,0,1-.33,1.36,3.62,3.62,0,0,1-.92,1.11,4.7,4.7,0,0,1-2.94,1,4.85,4.85,0,0,1-2-.4,4.12,4.12,0,0,1-1.46-1.09,4.66,4.66,0,0,1-.88-1.61,6.35,6.35,0,0,1-.29-1.94v-.33a6.4,6.4,0,0,1,.29-1.95,4.61,4.61,0,0,1,.88-1.61,4.21,4.21,0,0,1,1.46-1.09,4.78,4.78,0,0,1,2-.4,5,5,0,0,1,1.68.28,4,4,0,0,1,1.34.78,3.5,3.5,0,0,1,.87,1.2,3.59,3.59,0,0,1,.3,1.52h-2.1a1.84,1.84,0,0,0-.58-1.4,2.17,2.17,0,0,0-.68-.43,2.25,2.25,0,0,0-.85-.16,2.08,2.08,0,0,0-1.9,1,3.2,3.2,0,0,0-.39,1,6.1,6.1,0,0,0-.12,1.19V245a6.13,6.13,0,0,0,.12,1.2,3.18,3.18,0,0,0,.39,1,2.18,2.18,0,0,0,.74.74A2.21,2.21,0,0,0,274.18,248.22Z"/><path class="cls-5" d="M282,244.69a6.23,6.23,0,0,1,.32-2,4.81,4.81,0,0,1,.92-1.62,4.2,4.2,0,0,1,1.46-1.08,4.71,4.71,0,0,1,2-.39,4.76,4.76,0,0,1,2,.39,4.19,4.19,0,0,1,1.47,1.08,4.74,4.74,0,0,1,.91,1.62,6.31,6.31,0,0,1,.32,2v.19a6.35,6.35,0,0,1-.32,2,4.68,4.68,0,0,1-.91,1.62,4.22,4.22,0,0,1-1.46,1.07,4.71,4.71,0,0,1-2,.39,4.76,4.76,0,0,1-2-.39,4.21,4.21,0,0,1-1.47-1.07,4.75,4.75,0,0,1-.92-1.62,6.27,6.27,0,0,1-.32-2Zm2.22.19a5.56,5.56,0,0,0,.14,1.29,3.31,3.31,0,0,0,.45,1.06,2.21,2.21,0,0,0,.77.72,2.19,2.19,0,0,0,1.1.26,2.12,2.12,0,0,0,1.08-.26,2.22,2.22,0,0,0,.76-.72,3.31,3.31,0,0,0,.45-1.06,5.56,5.56,0,0,0,.14-1.29v-.19a5.48,5.48,0,0,0-.14-1.27,3.25,3.25,0,0,0-.45-1.06,2.3,2.3,0,0,0-.76-.72,2.37,2.37,0,0,0-2.19,0,2.24,2.24,0,0,0-.76.72,3.31,3.31,0,0,0-.44,1.06,5.48,5.48,0,0,0-.14,1.27Z"/><path class="cls-5" d="M301.5,248.42a3.74,3.74,0,0,1-1.24,1.16,3.25,3.25,0,0,1-1.63.41,4,4,0,0,1-1.42-.24,2.7,2.7,0,0,1-1.1-.76,3.67,3.67,0,0,1-.71-1.34,6.53,6.53,0,0,1-.26-2v-5.94h2.22v6a5.58,5.58,0,0,0,.11,1.2,1.84,1.84,0,0,0,.33.75,1.21,1.21,0,0,0,.56.39,2.44,2.44,0,0,0,.8.12,2.65,2.65,0,0,0,1.44-.35,2.19,2.19,0,0,0,.83-.94v-7.12h2.23v10h-2Z"/><path class="cls-5" d="M309.71,239.76l.14,1.39a3.89,3.89,0,0,1,1.32-1.16,3.6,3.6,0,0,1,1.72-.41,4.23,4.23,0,0,1,1.41.22,2.77,2.77,0,0,1,1.09.7,3.2,3.2,0,0,1,.71,1.22,5.65,5.65,0,0,1,.25,1.81v6.27h-2.22v-6.23a3.23,3.23,0,0,0-.14-1,1.63,1.63,0,0,0-.41-.67,1.51,1.51,0,0,0-.64-.36,3.23,3.23,0,0,0-.86-.11,2.44,2.44,0,0,0-1.28.33,2.52,2.52,0,0,0-.88.88v7.2H307.7v-10Z"/><path class="cls-5" d="M324.78,237.33v2.43h3.79v1.65h-3.79v4.81a2.78,2.78,0,0,0,.13.94,1.46,1.46,0,0,0,.38.59,1.33,1.33,0,0,0,.57.31,2.69,2.69,0,0,0,.71.09,5.54,5.54,0,0,0,.6,0l.6-.07.54-.09.41-.1.25,1.53a3.32,3.32,0,0,1-.58.25,5.17,5.17,0,0,1-.74.19c-.27,0-.54.09-.83.12s-.57,0-.85,0a4.35,4.35,0,0,1-1.38-.21,2.76,2.76,0,0,1-1.08-.65,3,3,0,0,1-.71-1.13,4.77,4.77,0,0,1-.26-1.66v-4.94h-2.45v-1.65h2.45v-2.43Z"/><rect class="cls-6" x="443.04" y="255.44" width="207.43" height="40" rx="20" ry="20"/><path class="cls-4" d="M492,277.1H487.3v5h-1.46V270.74h7V272H487.3v3.89H492Z"/><path class="cls-4" d="M495.53,273.67h4.32v7.2h2.76v1.25h-7.08v-1.25h2.88v-5.95h-2.87Zm2.69-2.22a.89.89,0,0,1,.21-.61,1,1,0,0,1,1.3,0,.88.88,0,0,1,.22.61.83.83,0,0,1-.22.59,1,1,0,0,1-1.3,0A.83.83,0,0,1,498.22,271.45Z"/><path class="cls-4" d="M506.2,273.67l.1,1.25a3.35,3.35,0,0,1,1.13-1,3.11,3.11,0,0,1,1.5-.38,3.68,3.68,0,0,1,1.21.19,2.3,2.3,0,0,1,.93.59,2.66,2.66,0,0,1,.59,1,4.58,4.58,0,0,1,.21,1.46v5.37h-1.45v-5.34a3.17,3.17,0,0,0-.12-1,1.51,1.51,0,0,0-.37-.63,1.45,1.45,0,0,0-.6-.35,2.77,2.77,0,0,0-.82-.11,2.27,2.27,0,0,0-1.28.36,2.68,2.68,0,0,0-.88,1v6.06h-1.45v-8.45Z"/><path class="cls-4" d="M514.24,277.82a6,6,0,0,1,.24-1.74,4.17,4.17,0,0,1,.68-1.36,3.16,3.16,0,0,1,1.07-.89,3,3,0,0,1,1.4-.32,3.22,3.22,0,0,1,1.32.25,2.76,2.76,0,0,1,1,.74v-4.38h1.45v12H520l-.06-.89a2.76,2.76,0,0,1-1,.78,3.29,3.29,0,0,1-1.37.27,2.92,2.92,0,0,1-1.39-.33,3.18,3.18,0,0,1-1.06-.91,4.36,4.36,0,0,1-.68-1.36,5.72,5.72,0,0,1-.24-1.69Zm1.45.16a5,5,0,0,0,.13,1.17,3.07,3.07,0,0,0,.41,1,2.06,2.06,0,0,0,.71.67,2,2,0,0,0,1,.25,2.37,2.37,0,0,0,.66-.09,2,2,0,0,0,.54-.25,2,2,0,0,0,.43-.38,2.63,2.63,0,0,0,.33-.5v-3.92a2.45,2.45,0,0,0-.76-.85,2,2,0,0,0-1.19-.33,2.05,2.05,0,0,0-1,.25,2.07,2.07,0,0,0-.71.68,3.12,3.12,0,0,0-.41,1,5.05,5.05,0,0,0-.13,1.18Z"/><path class="cls-4" d="M541.11,277.09a8.53,8.53,0,0,1-.11,1.23,6.8,6.8,0,0,1-.3,1.2,5.28,5.28,0,0,1-.52,1.08,3.87,3.87,0,0,1-.75.88,3.36,3.36,0,0,1-1,.59,3.86,3.86,0,0,1-2.54,0,3.36,3.36,0,0,1-1-.59,3.92,3.92,0,0,1-.76-.88,5.37,5.37,0,0,1-.53-1.08,6.84,6.84,0,0,1-.31-1.2,8.19,8.19,0,0,1-.11-1.23v-1.3a8.53,8.53,0,0,1,.11-1.23,6.64,6.64,0,0,1,.3-1.2,5.51,5.51,0,0,1,.52-1.08,3.91,3.91,0,0,1,.75-.88,3.31,3.31,0,0,1,1-.59,3.87,3.87,0,0,1,2.54,0,3.36,3.36,0,0,1,1,.59,3.83,3.83,0,0,1,.75.88,5.51,5.51,0,0,1,.52,1.08,6.62,6.62,0,0,1,.3,1.2,8.62,8.62,0,0,1,.11,1.23Zm-1.43-1.31c0-.27,0-.55-.05-.85a6,6,0,0,0-.16-.87,4.65,4.65,0,0,0-.3-.83,2.72,2.72,0,0,0-.47-.7,2,2,0,0,0-1.55-.65,2.05,2.05,0,0,0-.88.18,2.17,2.17,0,0,0-.66.48,2.72,2.72,0,0,0-.47.7,4.65,4.65,0,0,0-.3.83,6.42,6.42,0,0,0-.16.88q-.05.44-.06.84v1.31q0,.4.06.84a6,6,0,0,0,.17.88,5,5,0,0,0,.3.83,2.69,2.69,0,0,0,.47.7,2.17,2.17,0,0,0,.66.48,2.07,2.07,0,0,0,.89.18,2,2,0,0,0,1.56-.66,2.69,2.69,0,0,0,.46-.7,4.87,4.87,0,0,0,.3-.83,5.6,5.6,0,0,0,.16-.88c0-.3,0-.58.05-.85Z"/><path class="cls-4" d="M548.8,281a2.9,2.9,0,0,1-2.52,1.32,3.34,3.34,0,0,1-1.2-.21,2.3,2.3,0,0,1-.92-.64,3,3,0,0,1-.59-1.11,5.59,5.59,0,0,1-.21-1.62v-5h1.45v5a5,5,0,0,0,.11,1.14,1.82,1.82,0,0,0,.33.72,1.17,1.17,0,0,0,.54.38,2.22,2.22,0,0,0,.73.11,2.55,2.55,0,0,0,1.43-.36,2.17,2.17,0,0,0,.81-1v-6.06h1.45v8.45h-1.31Z"/><path class="cls-4" d="M556.34,271.62v2h3.22v1.12h-3.22v4.59a2.27,2.27,0,0,0,.13.81,1.29,1.29,0,0,0,.34.51,1.25,1.25,0,0,0,.5.27,2.3,2.3,0,0,0,.61.08l.48,0,.49-.07.45-.08.34-.07.2,1a2,2,0,0,1-.44.19,4.93,4.93,0,0,1-.56.14q-.3.06-.64.09t-.68,0a3.36,3.36,0,0,1-1.05-.16,2.18,2.18,0,0,1-.85-.51,2.4,2.4,0,0,1-.57-.9,3.81,3.81,0,0,1-.21-1.33v-4.59h-2.22v-1.12h2.22v-2Z"/><path class="cls-4" d="M573.7,270.74l1.85,5.69,2-5.69h1.8v11.38h-1.41v-4.54l.12-4.75L576,279h-.83l-1.93-6,.12,4.59v4.54h-1.41V270.74Z"/><path class="cls-4" d="M581.31,277.81a5.28,5.28,0,0,1,.27-1.7,4.06,4.06,0,0,1,.76-1.36,3.55,3.55,0,0,1,1.21-.91,3.73,3.73,0,0,1,1.6-.33,3.78,3.78,0,0,1,1.61.33,3.54,3.54,0,0,1,1.21.91,4.06,4.06,0,0,1,.76,1.36,5.28,5.28,0,0,1,.27,1.7V278a5.24,5.24,0,0,1-.27,1.7A4.07,4.07,0,0,1,588,281a3.51,3.51,0,0,1-1.21.91,3.78,3.78,0,0,1-1.6.33,3.83,3.83,0,0,1-1.61-.33,3.49,3.49,0,0,1-1.21-.91,4.07,4.07,0,0,1-.76-1.36,5.24,5.24,0,0,1-.27-1.7Zm1.45.17a4.7,4.7,0,0,0,.15,1.19,3.08,3.08,0,0,0,.45,1,2.22,2.22,0,0,0,.75.68,2.14,2.14,0,0,0,1.05.25,2.11,2.11,0,0,0,1-.25,2.23,2.23,0,0,0,.75-.68,3.08,3.08,0,0,0,.45-1,4.7,4.7,0,0,0,.15-1.19v-.17a4.54,4.54,0,0,0-.15-1.18,3.14,3.14,0,0,0-.45-1,2.26,2.26,0,0,0-.75-.68,2.1,2.1,0,0,0-1.05-.25,2.08,2.08,0,0,0-1,.25,2.28,2.28,0,0,0-.75.68,3.08,3.08,0,0,0-.45,1,4.67,4.67,0,0,0-.15,1.18Z"/><path class="cls-4" d="M596.86,273.51h.42l.42,0,.37.07.28.09-.2,1.41a7.6,7.6,0,0,0-.8-.14,7.12,7.12,0,0,0-.79,0,2.71,2.71,0,0,0-1.64.46,2.67,2.67,0,0,0-.93,1.29v5.42h-1.45v-8.45h1.38L594,275a3.89,3.89,0,0,1,1.24-1.1A3.32,3.32,0,0,1,596.86,273.51Z"/><path class="cls-4" d="M604.66,282.28A4.29,4.29,0,0,1,603,282a3.72,3.72,0,0,1-1.28-.85,3.89,3.89,0,0,1-.83-1.3,4.39,4.39,0,0,1-.3-1.63v-.33a4.84,4.84,0,0,1,.33-1.83,4.19,4.19,0,0,1,.87-1.37,3.81,3.81,0,0,1,1.23-.86,3.56,3.56,0,0,1,1.42-.3,3.77,3.77,0,0,1,1.6.32,3.13,3.13,0,0,1,1.14.88,3.74,3.74,0,0,1,.68,1.32,5.79,5.79,0,0,1,.22,1.64v.65h-6a3.32,3.32,0,0,0,.22,1.09,2.83,2.83,0,0,0,.55.89,2.51,2.51,0,0,0,.83.6,2.58,2.58,0,0,0,1.07.22,2.94,2.94,0,0,0,1.38-.31,3,3,0,0,0,1-.83l.88.69a3.34,3.34,0,0,1-.53.61,3.64,3.64,0,0,1-.73.52,4.09,4.09,0,0,1-.94.36A4.52,4.52,0,0,1,604.66,282.28Zm-.19-7.58a2.17,2.17,0,0,0-.83.16,2.14,2.14,0,0,0-.7.47,2.69,2.69,0,0,0-.53.76,3.6,3.6,0,0,0-.3,1h4.55V277a3.24,3.24,0,0,0-.16-.84,2.33,2.33,0,0,0-.4-.74,2,2,0,0,0-.67-.53A2.1,2.1,0,0,0,604.47,274.7Z"/></g></g></svg>