<svg xmlns="http://www.w3.org/2000/svg" viewBox="0 0 952.33 414.5"><defs><style>.cls-1{fill:none;}.cls-2{fill:#ffcd00;}.cls-3,.cls-4{fill:#676364;}.cls-4{stroke:#ffcd00;stroke-miterlimit:10;stroke-width:2px;}.cls-5,.cls-7{fill:#fff;}.cls-6{fill:#3f3f3f;}.cls-7{font-size:20px;font-family:FontAwesome, FontAwesome;}</style></defs><title>image_3</title><g id="Layer_2" data-name="Layer 2"><g id="Layer_1-2" data-name="Layer 1"><rect class="cls-1" width="952.33" height="414.5"/><rect class="cls-2" x="47.25" y="388.95" width="818" height="3"/><circle class="cls-2" cx="862.58" cy="390.45" r="8.25"/><path class="cls-3" d="M143.31,200.23V186.72h3.3a6.66,6.66,0,0,1,2.5.46,5.3,5.3,0,0,1,1.88,1.28,5.69,5.69,0,0,1,1.19,2,7.5,7.5,0,0,1,.43,2.54v1a7.5,7.5,0,0,1-.43,2.54,5.66,5.66,0,0,1-1.19,2,5.31,5.31,0,0,1-1.86,1.28,6.35,6.35,0,0,1-2.46.46Zm2.26-11.71v9.92h1.1a3.85,3.85,0,0,0,1.61-.33,3.12,3.12,0,0,0,1.15-.9,3.93,3.93,0,0,0,.69-1.4,7,7,0,0,0,.24-1.82v-1a6.79,6.79,0,0,0-.24-1.78,4,4,0,0,0-.69-1.4,3.19,3.19,0,0,0-1.16-.92,3.92,3.92,0,0,0-1.65-.34Z"/><path class="cls-3" d="M155.71,195.12a6.23,6.23,0,0,1,.32-2,4.81,4.81,0,0,1,.92-1.62,4.2,4.2,0,0,1,1.46-1.08,4.71,4.71,0,0,1,2-.39,4.76,4.76,0,0,1,2,.39,4.19,4.19,0,0,1,1.47,1.08,4.74,4.74,0,0,1,.91,1.62,6.31,6.31,0,0,1,.32,2v.19a6.35,6.35,0,0,1-.32,2,4.68,4.68,0,0,1-.91,1.62,4.22,4.22,0,0,1-1.46,1.07,4.71,4.71,0,0,1-2,.39,4.76,4.76,0,0,1-2-.39,4.21,4.21,0,0,1-1.47-1.07,4.75,4.75,0,0,1-.92-1.62,6.27,6.27,0,0,1-.32-2Zm2.22.19a5.56,5.56,0,0,0,.14,1.29,3.31,3.31,0,0,0,.45,1.06,2.21,2.21,0,0,0,.77.72,2.19,2.19,0,0,0,1.1.26,2.12,2.12,0,0,0,1.08-.26,2.22,2.22,0,0,0,.76-.72,3.31,3.31,0,0,0,.45-1.06,5.56,5.56,0,0,0,.14-1.29v-.19a5.48,5.48,0,0,0-.14-1.27,3.25,3.25,0,0,0-.45-1.06,2.3,2.3,0,0,0-.76-.72,2.37,2.37,0,0,0-2.19,0,2.24,2.24,0,0,0-.76.72,3.31,3.31,0,0,0-.44,1.06,5.48,5.48,0,0,0-.14,1.27Z"/><path class="cls-3" d="M170.76,190.19l.14,1.39a3.89,3.89,0,0,1,1.32-1.16,3.6,3.6,0,0,1,1.72-.41,4.23,4.23,0,0,1,1.41.22,2.77,2.77,0,0,1,1.09.7,3.2,3.2,0,0,1,.71,1.22,5.65,5.65,0,0,1,.25,1.81v6.27h-2.22V194a3.23,3.23,0,0,0-.14-1,1.63,1.63,0,0,0-.41-.67,1.51,1.51,0,0,0-.64-.36,3.23,3.23,0,0,0-.86-.11,2.44,2.44,0,0,0-1.28.33,2.52,2.52,0,0,0-.88.88v7.2h-2.23v-10Z"/><path class="cls-3" d="M183.84,187.13l-.23,3.62h-1.55V186h1.78Z"/><path class="cls-3" d="M190.87,187.76v2.43h3.79v1.65h-3.79v4.81a2.78,2.78,0,0,0,.13.94,1.46,1.46,0,0,0,.38.59,1.33,1.33,0,0,0,.57.31,2.69,2.69,0,0,0,.71.09,5.54,5.54,0,0,0,.6,0l.6-.07.54-.09.41-.1.25,1.53a3.32,3.32,0,0,1-.58.25,5.17,5.17,0,0,1-.74.19c-.27,0-.54.09-.83.12s-.57,0-.85,0a4.35,4.35,0,0,1-1.38-.21,2.76,2.76,0,0,1-1.08-.65,3,3,0,0,1-.71-1.13,4.77,4.77,0,0,1-.26-1.66v-4.94h-2.45v-1.65h2.45v-2.43Z"/><path class="cls-3" d="M220.53,195.32a7.74,7.74,0,0,1-.25,2,4.83,4.83,0,0,1-.76,1.61,3.55,3.55,0,0,1-1.23,1.06,4,4,0,0,1-3.28.06,3.26,3.26,0,0,1-1.16-.94l-.1,1.08h-2V186h2.22v5.17a3.27,3.27,0,0,1,1.11-.84,3.56,3.56,0,0,1,1.51-.3,3.69,3.69,0,0,1,1.7.38,3.49,3.49,0,0,1,1.24,1.05,4.82,4.82,0,0,1,.76,1.62,7.92,7.92,0,0,1,.25,2.07Zm-2.22-.19a6.67,6.67,0,0,0-.12-1.27,3.35,3.35,0,0,0-.38-1.05,2,2,0,0,0-.71-.72,2.11,2.11,0,0,0-1.1-.26,2.14,2.14,0,0,0-1.29.36,2.35,2.35,0,0,0-.77.95v4.15a2.41,2.41,0,0,0,.77,1,2.15,2.15,0,0,0,1.3.37,2.07,2.07,0,0,0,1.07-.26,2,2,0,0,0,.71-.7,3.22,3.22,0,0,0,.39-1,6.52,6.52,0,0,0,.12-1.29Z"/><path class="cls-3" d="M229,200.42a5.38,5.38,0,0,1-2-.37,4.7,4.7,0,0,1-1.57-1,4.55,4.55,0,0,1-1-1.54,5,5,0,0,1-.36-1.92v-.38a5.71,5.71,0,0,1,.38-2.15,5.08,5.08,0,0,1,1-1.63,4.41,4.41,0,0,1,1.5-1,4.57,4.57,0,0,1,1.8-.36,4.76,4.76,0,0,1,1.93.37,3.81,3.81,0,0,1,1.4,1,4.52,4.52,0,0,1,.85,1.57,6.6,6.6,0,0,1,.29,2v.94h-7a3.29,3.29,0,0,0,.29,1.08,2.89,2.89,0,0,0,.61.87,2.76,2.76,0,0,0,.88.58,2.89,2.89,0,0,0,1.11.21,3.6,3.6,0,0,0,1.55-.33,3.07,3.07,0,0,0,1.16-.92l1.21,1.13a3.64,3.64,0,0,1-.62.7,4.33,4.33,0,0,1-.89.6,5.42,5.42,0,0,1-1.15.43A5.64,5.64,0,0,1,229,200.42Zm-.27-8.62a2.21,2.21,0,0,0-.86.17,2.17,2.17,0,0,0-.71.49,2.83,2.83,0,0,0-.53.78,3.81,3.81,0,0,0-.31,1H231v-.17a3.21,3.21,0,0,0-.17-.86,2.28,2.28,0,0,0-.42-.74,2,2,0,0,0-.7-.52A2.34,2.34,0,0,0,228.75,191.8Z"/><path class="cls-3" d="M256,200.23a2,2,0,0,1-.15-.44c0-.17-.08-.35-.11-.54a3.75,3.75,0,0,1-.52.45,3.62,3.62,0,0,1-.65.37,4.12,4.12,0,0,1-.77.25,4.05,4.05,0,0,1-.89.09,4.32,4.32,0,0,1-1.44-.23,3.31,3.31,0,0,1-1.1-.63,2.79,2.79,0,0,1-1-2.14,2.84,2.84,0,0,1,1.2-2.47,5.91,5.91,0,0,1,3.45-.85h1.62v-.66a1.59,1.59,0,0,0-.54-1.27,2.25,2.25,0,0,0-1.52-.47,2.56,2.56,0,0,0-.78.11,1.63,1.63,0,0,0-.56.29,1.2,1.2,0,0,0-.33.44,1.32,1.32,0,0,0-.11.54h-2.22a2.53,2.53,0,0,1,.27-1.14,3,3,0,0,1,.8-1,4.09,4.09,0,0,1,1.29-.69,5.44,5.44,0,0,1,1.75-.26,6,6,0,0,1,1.65.22,3.87,3.87,0,0,1,1.32.65,3,3,0,0,1,.87,1.08,3.39,3.39,0,0,1,.32,1.51v4.47a6.86,6.86,0,0,0,.1,1.2,3.84,3.84,0,0,0,.28.94v.16Zm-2.67-1.61a2.91,2.91,0,0,0,.8-.11,3,3,0,0,0,.68-.28,2.36,2.36,0,0,0,.52-.39,2.22,2.22,0,0,0,.35-.45v-1.88h-1.41a3.62,3.62,0,0,0-2,.44,1.41,1.41,0,0,0-.64,1.24,1.56,1.56,0,0,0,.1.57,1.19,1.19,0,0,0,.31.46,1.51,1.51,0,0,0,.53.3A2.34,2.34,0,0,0,253.35,198.63Z"/><path class="cls-3" d="M279,197.43l.16.74.17-.73,2.43-7.25H284l-3.93,10H278.2l-4-10h2.29Z"/><path class="cls-3" d="M288,190.19h5.35v8.2h3v1.84H288V198.4h3.12V192H288Zm2.93-2.6a1.17,1.17,0,0,1,.33-.86,1.26,1.26,0,0,1,.94-.34,1.29,1.29,0,0,1,1,.34,1.26,1.26,0,0,1,0,1.72,1.29,1.29,0,0,1-1,.34,1.26,1.26,0,0,1-.94-.34A1.17,1.17,0,0,1,290.94,187.6Z"/><path class="cls-3" d="M304.55,198.66a2.45,2.45,0,0,0,.79-.13,2.28,2.28,0,0,0,.68-.36,1.76,1.76,0,0,0,.47-.55,1.34,1.34,0,0,0,.16-.69h2.1a2.78,2.78,0,0,1-.33,1.36,3.62,3.62,0,0,1-.92,1.11,4.7,4.7,0,0,1-2.94,1,4.85,4.85,0,0,1-2-.4,4.12,4.12,0,0,1-1.46-1.09,4.66,4.66,0,0,1-.88-1.61,6.35,6.35,0,0,1-.29-1.94v-.33a6.4,6.4,0,0,1,.29-1.95,4.61,4.61,0,0,1,.88-1.61,4.21,4.21,0,0,1,1.46-1.09,4.78,4.78,0,0,1,2-.4,5,5,0,0,1,1.68.28,4,4,0,0,1,1.34.78,3.5,3.5,0,0,1,.87,1.2,3.59,3.59,0,0,1,.3,1.52h-2.1a1.84,1.84,0,0,0-.58-1.4,2.17,2.17,0,0,0-.68-.43,2.25,2.25,0,0,0-.85-.16,2.08,2.08,0,0,0-1.9,1,3.2,3.2,0,0,0-.39,1,6.1,6.1,0,0,0-.12,1.19v.33a6.13,6.13,0,0,0,.12,1.2,3.18,3.18,0,0,0,.39,1,2.18,2.18,0,0,0,.74.74A2.21,2.21,0,0,0,304.55,198.66Z"/><path class="cls-3" d="M317.25,187.76v2.43H321v1.65h-3.79v4.81a2.78,2.78,0,0,0,.13.94,1.46,1.46,0,0,0,.38.59,1.33,1.33,0,0,0,.57.31,2.69,2.69,0,0,0,.71.09,5.54,5.54,0,0,0,.6,0l.6-.07.54-.09.41-.1.25,1.53a3.32,3.32,0,0,1-.58.25,5.17,5.17,0,0,1-.74.19c-.27,0-.54.09-.83.12s-.57,0-.85,0a4.35,4.35,0,0,1-1.38-.21,2.76,2.76,0,0,1-1.08-.65,3,3,0,0,1-.71-1.13,4.77,4.77,0,0,1-.26-1.66v-4.94h-2.45v-1.65H315v-2.43Z"/><path class="cls-3" d="M325.92,190.19h5.35v8.2h3v1.84h-8.33V198.4H329V192h-3.12Zm2.93-2.6a1.17,1.17,0,0,1,.33-.86,1.26,1.26,0,0,1,.94-.34,1.29,1.29,0,0,1,1,.34,1.26,1.26,0,0,1,0,1.72,1.29,1.29,0,0,1-1,.34,1.26,1.26,0,0,1-.94-.34A1.17,1.17,0,0,1,328.85,187.6Z"/><path class="cls-3" d="M339.36,190.19l.05,1.06a2.33,2.33,0,0,1,.8-.91,2.15,2.15,0,0,1,1.21-.33,2,2,0,0,1,1.06.25,1.57,1.57,0,0,1,.64.79,2.28,2.28,0,0,1,.76-.76A2.12,2.12,0,0,1,345,190a2.47,2.47,0,0,1,.9.16,1.74,1.74,0,0,1,.71.51,2.52,2.52,0,0,1,.45.9,4.67,4.67,0,0,1,.16,1.32v7.33h-2.06v-7.35a1.08,1.08,0,0,0-.25-.83,1,1,0,0,0-.65-.23.93.93,0,0,0-.6.18,1,1,0,0,0-.32.48v7.75h-2v-7.35a1.15,1.15,0,0,0-.24-.82.87.87,0,0,0-.64-.24,1,1,0,0,0-.61.17,1.07,1.07,0,0,0-.34.46v7.78h-2.06v-10Z"/><path class="cls-3" d="M362.94,195.12a6.23,6.23,0,0,1,.32-2,4.81,4.81,0,0,1,.92-1.62,4.2,4.2,0,0,1,1.46-1.08,4.71,4.71,0,0,1,2-.39,4.76,4.76,0,0,1,2,.39,4.19,4.19,0,0,1,1.47,1.08,4.74,4.74,0,0,1,.91,1.62,6.31,6.31,0,0,1,.32,2v.19a6.35,6.35,0,0,1-.32,2A4.68,4.68,0,0,1,371,199a4.22,4.22,0,0,1-1.46,1.07,4.71,4.71,0,0,1-2,.39,4.76,4.76,0,0,1-2-.39,4.21,4.21,0,0,1-1.47-1.07,4.75,4.75,0,0,1-.92-1.62,6.27,6.27,0,0,1-.32-2Zm2.22.19a5.56,5.56,0,0,0,.14,1.29,3.31,3.31,0,0,0,.45,1.06,2.21,2.21,0,0,0,.77.72,2.19,2.19,0,0,0,1.1.26,2.12,2.12,0,0,0,1.08-.26,2.22,2.22,0,0,0,.76-.72,3.31,3.31,0,0,0,.45-1.06,5.56,5.56,0,0,0,.15-1.29v-.19a5.48,5.48,0,0,0-.15-1.27,3.25,3.25,0,0,0-.45-1.06,2.3,2.3,0,0,0-.76-.72,2.37,2.37,0,0,0-2.19,0,2.24,2.24,0,0,0-.76.72,3.31,3.31,0,0,0-.44,1.06,5.48,5.48,0,0,0-.14,1.27Z"/><path class="cls-3" d="M378.51,200.23v-8.39h-2.7v-1.65h2.7v-.62a4.69,4.69,0,0,1,.29-1.72,3.29,3.29,0,0,1,.84-1.25,3.72,3.72,0,0,1,1.33-.77,5.45,5.45,0,0,1,1.75-.26,7.41,7.41,0,0,1,1.22.1l1.21.23-.2,1.76a7.67,7.67,0,0,0-.84-.18,6.75,6.75,0,0,0-1.09-.08,2.35,2.35,0,0,0-1.75.57,2.21,2.21,0,0,0-.55,1.61v.62h3.73v1.65h-3.73v8.39Z"/><path class="cls-3" d="M405.94,200.42a5.38,5.38,0,0,1-2-.37,4.7,4.7,0,0,1-1.57-1,4.55,4.55,0,0,1-1-1.54,5,5,0,0,1-.36-1.92v-.38a5.71,5.71,0,0,1,.38-2.15,5.08,5.08,0,0,1,1-1.63,4.41,4.41,0,0,1,1.5-1,4.57,4.57,0,0,1,1.8-.36,4.76,4.76,0,0,1,1.93.37,3.81,3.81,0,0,1,1.4,1,4.52,4.52,0,0,1,.85,1.57,6.6,6.6,0,0,1,.29,2v.94h-7a3.29,3.29,0,0,0,.29,1.08,2.89,2.89,0,0,0,.61.87,2.76,2.76,0,0,0,.88.58,2.89,2.89,0,0,0,1.11.21,3.6,3.6,0,0,0,1.55-.33,3.07,3.07,0,0,0,1.16-.92l1.21,1.13a3.64,3.64,0,0,1-.62.7,4.33,4.33,0,0,1-.89.6,5.42,5.42,0,0,1-1.15.43A5.64,5.64,0,0,1,405.94,200.42Zm-.27-8.62a2.21,2.21,0,0,0-.86.17,2.17,2.17,0,0,0-.71.49,2.83,2.83,0,0,0-.53.78,3.81,3.81,0,0,0-.31,1H408v-.17a3.21,3.21,0,0,0-.17-.86,2.28,2.28,0,0,0-.42-.74,2,2,0,0,0-.7-.52A2.34,2.34,0,0,0,405.67,191.8Z"/><path class="cls-3" d="M415.18,190.19l.05,1.06a2.33,2.33,0,0,1,.8-.91,2.15,2.15,0,0,1,1.21-.33,2,2,0,0,1,1.06.25,1.57,1.57,0,0,1,.64.79,2.28,2.28,0,0,1,.76-.76,2.12,2.12,0,0,1,1.12-.28,2.47,2.47,0,0,1,.9.16,1.74,1.74,0,0,1,.71.51,2.52,2.52,0,0,1,.45.9,4.67,4.67,0,0,1,.16,1.32v7.33H421v-7.35a1.08,1.08,0,0,0-.25-.83,1,1,0,0,0-.65-.23.93.93,0,0,0-.6.18,1,1,0,0,0-.32.48v7.75h-2v-7.35a1.15,1.15,0,0,0-.24-.82.87.87,0,0,0-.64-.24,1,1,0,0,0-.61.17,1.07,1.07,0,0,0-.34.46v7.78h-2.06v-10Z"/><path class="cls-3" d="M432.94,200.23a2,2,0,0,1-.15-.44c0-.17-.08-.35-.11-.54a3.75,3.75,0,0,1-.52.45,3.62,3.62,0,0,1-.65.37,4.12,4.12,0,0,1-.77.25,4.05,4.05,0,0,1-.89.09,4.32,4.32,0,0,1-1.44-.23,3.31,3.31,0,0,1-1.1-.63,2.79,2.79,0,0,1-1-2.14,2.84,2.84,0,0,1,1.2-2.47,5.91,5.91,0,0,1,3.45-.85h1.62v-.66a1.59,1.59,0,0,0-.54-1.27,2.25,2.25,0,0,0-1.52-.47,2.56,2.56,0,0,0-.78.11,1.63,1.63,0,0,0-.56.29,1.2,1.2,0,0,0-.33.44,1.32,1.32,0,0,0-.11.54h-2.22a2.53,2.53,0,0,1,.27-1.14,3,3,0,0,1,.8-1,4.09,4.09,0,0,1,1.29-.69,5.44,5.44,0,0,1,1.75-.26,6,6,0,0,1,1.65.22,3.87,3.87,0,0,1,1.32.65,3,3,0,0,1,.87,1.08,3.39,3.39,0,0,1,.32,1.51v4.47a6.86,6.86,0,0,0,.1,1.2,3.84,3.84,0,0,0,.28.94v.16Zm-2.67-1.61a2.91,2.91,0,0,0,.8-.11,3,3,0,0,0,.68-.28,2.36,2.36,0,0,0,.52-.39,2.22,2.22,0,0,0,.35-.45v-1.88h-1.41a3.62,3.62,0,0,0-2,.44,1.41,1.41,0,0,0-.64,1.24,1.56,1.56,0,0,0,.1.57,1.19,1.19,0,0,0,.31.46,1.51,1.51,0,0,0,.53.3A2.34,2.34,0,0,0,430.27,198.63Z"/><path class="cls-3" d="M439.66,190.19H445v8.2h3v1.84h-8.33V198.4h3.12V192h-3.12Zm2.93-2.6a1.17,1.17,0,0,1,.33-.86,1.26,1.26,0,0,1,.94-.34,1.29,1.29,0,0,1,1,.34,1.26,1.26,0,0,1,0,1.72,1.29,1.29,0,0,1-1,.34,1.26,1.26,0,0,1-.94-.34A1.17,1.17,0,0,1,442.59,187.6Z"/><path class="cls-3" d="M452.22,186h5.43V198.4h3.06v1.84h-8.49V198.4h3.19V187.83h-3.19Z"/><path class="cls-3" d="M476.68,195.12a6.23,6.23,0,0,1,.32-2,4.81,4.81,0,0,1,.92-1.62,4.2,4.2,0,0,1,1.46-1.08,4.71,4.71,0,0,1,2-.39,4.76,4.76,0,0,1,2,.39,4.19,4.19,0,0,1,1.47,1.08,4.74,4.74,0,0,1,.91,1.62,6.31,6.31,0,0,1,.32,2v.19a6.35,6.35,0,0,1-.32,2,4.68,4.68,0,0,1-.91,1.62,4.22,4.22,0,0,1-1.46,1.07,4.71,4.71,0,0,1-2,.39,4.76,4.76,0,0,1-2-.39,4.21,4.21,0,0,1-1.47-1.07,4.75,4.75,0,0,1-.92-1.62,6.27,6.27,0,0,1-.32-2Zm2.22.19a5.56,5.56,0,0,0,.14,1.29,3.31,3.31,0,0,0,.45,1.06,2.21,2.21,0,0,0,.77.72,2.19,2.19,0,0,0,1.1.26,2.12,2.12,0,0,0,1.08-.26,2.22,2.22,0,0,0,.76-.72,3.31,3.31,0,0,0,.45-1.06,5.56,5.56,0,0,0,.14-1.29v-.19a5.48,5.48,0,0,0-.14-1.27,3.25,3.25,0,0,0-.45-1.06,2.3,2.3,0,0,0-.76-.72,2.37,2.37,0,0,0-2.19,0,2.24,2.24,0,0,0-.76.72,3.31,3.31,0,0,0-.44,1.06,5.48,5.48,0,0,0-.14,1.27Z"/><path class="cls-3" d="M496.62,190l.54,0,.51.06.45.08a2,2,0,0,1,.34.1l-.32,2.18a9.07,9.07,0,0,0-2-.23,3.13,3.13,0,0,0-1.79.46,2.71,2.71,0,0,0-1,1.29v6.27h-2.22v-10h2.08l.1,1.57a4.62,4.62,0,0,1,1.45-1.28A3.77,3.77,0,0,1,496.62,190Z"/><path class="cls-3" d="M522,196.75a1.75,1.75,0,0,0-.2-.85,2,2,0,0,0-.57-.64,3.93,3.93,0,0,0-.87-.49,11.51,11.51,0,0,0-1.1-.38,12.4,12.4,0,0,1-1.57-.58,6,6,0,0,1-1.38-.84,4.08,4.08,0,0,1-1-1.16,3.07,3.07,0,0,1-.37-1.54,3.22,3.22,0,0,1,.38-1.56,3.67,3.67,0,0,1,1-1.17,4.68,4.68,0,0,1,1.47-.74,5.85,5.85,0,0,1,1.74-.26,5.41,5.41,0,0,1,1.82.3,4.68,4.68,0,0,1,1.48.84,4,4,0,0,1,1,1.3,3.84,3.84,0,0,1,.38,1.67H522a3.27,3.27,0,0,0-.22-.93,2.14,2.14,0,0,0-.48-.73,2.12,2.12,0,0,0-.76-.47,2.93,2.93,0,0,0-1-.17,3.16,3.16,0,0,0-.93.13,2.19,2.19,0,0,0-.74.38,1.8,1.8,0,0,0-.49.6,1.77,1.77,0,0,0-.18.8,1.4,1.4,0,0,0,.24.82,2.32,2.32,0,0,0,.63.61,4.43,4.43,0,0,0,.89.45q.51.19,1.05.35a11.11,11.11,0,0,1,1.62.62,5.81,5.81,0,0,1,1.35.88,4,4,0,0,1,.93,1.19,3.37,3.37,0,0,1,.34,1.55,3.22,3.22,0,0,1-.38,1.59,3.5,3.5,0,0,1-1,1.15,4.63,4.63,0,0,1-1.48.7,6.49,6.49,0,0,1-1.76.24,6.39,6.39,0,0,1-1.23-.12,5.76,5.76,0,0,1-1.17-.36,5.18,5.18,0,0,1-1-.6,4.15,4.15,0,0,1-.84-.83,3.77,3.77,0,0,1-.56-1,4,4,0,0,1-.21-1.28h2.24a2.92,2.92,0,0,0,.27,1.07,2.21,2.21,0,0,0,.59.76,2.57,2.57,0,0,0,.87.46,3.73,3.73,0,0,0,1.1.15,3.52,3.52,0,0,0,.94-.12,2.32,2.32,0,0,0,.76-.36,1.71,1.71,0,0,0,.51-.58A1.67,1.67,0,0,0,522,196.75Z"/><path class="cls-3" d="M530.22,186.72l1.68,5.84,1.86-5.84h2.76v13.51h-2.1v-4.64l.13-5.92-2.08,6.48H531.3l-1.88-6.25.13,5.7v4.64h-2.1V186.72Z"/><path class="cls-3" d="M547.23,196.75a1.75,1.75,0,0,0-.2-.85,2,2,0,0,0-.57-.64,3.93,3.93,0,0,0-.87-.49,11.51,11.51,0,0,0-1.1-.38,12.4,12.4,0,0,1-1.57-.58,6,6,0,0,1-1.38-.84,4.08,4.08,0,0,1-1-1.16,3.07,3.07,0,0,1-.37-1.54,3.22,3.22,0,0,1,.38-1.56,3.67,3.67,0,0,1,1-1.17,4.68,4.68,0,0,1,1.47-.74,5.85,5.85,0,0,1,1.74-.26,5.41,5.41,0,0,1,1.82.3,4.68,4.68,0,0,1,1.48.84,4,4,0,0,1,1,1.3,3.84,3.84,0,0,1,.38,1.67h-2.23a3.27,3.27,0,0,0-.22-.93,2.14,2.14,0,0,0-.48-.73,2.12,2.12,0,0,0-.76-.47,2.93,2.93,0,0,0-1-.17,3.16,3.16,0,0,0-.93.13,2.19,2.19,0,0,0-.74.38,1.8,1.8,0,0,0-.49.6,1.77,1.77,0,0,0-.18.8,1.4,1.4,0,0,0,.24.82,2.32,2.32,0,0,0,.63.61,4.43,4.43,0,0,0,.89.45q.51.19,1.05.35a11.11,11.11,0,0,1,1.62.62,5.81,5.81,0,0,1,1.35.88,4,4,0,0,1,.93,1.19,3.37,3.37,0,0,1,.34,1.55,3.22,3.22,0,0,1-.38,1.59,3.5,3.5,0,0,1-1,1.15,4.63,4.63,0,0,1-1.48.7,6.49,6.49,0,0,1-1.76.24,6.39,6.39,0,0,1-1.23-.12,5.76,5.76,0,0,1-1.17-.36,5.18,5.18,0,0,1-1-.6,4.15,4.15,0,0,1-.84-.83,3.77,3.77,0,0,1-.56-1,4,4,0,0,1-.21-1.28H542a2.92,2.92,0,0,0,.27,1.07,2.21,2.21,0,0,0,.59.76,2.57,2.57,0,0,0,.87.46,3.73,3.73,0,0,0,1.1.15,3.52,3.52,0,0,0,.94-.12,2.32,2.32,0,0,0,.76-.36,1.71,1.71,0,0,0,.51-.58A1.67,1.67,0,0,0,547.23,196.75Z"/><path class="cls-3" d="M568.07,200.23v-8.39h-2.7v-1.65h2.7v-.62a4.69,4.69,0,0,1,.29-1.72,3.29,3.29,0,0,1,.84-1.25,3.72,3.72,0,0,1,1.33-.77,5.45,5.45,0,0,1,1.75-.26,7.41,7.41,0,0,1,1.22.1l1.21.23-.2,1.76a7.67,7.67,0,0,0-.84-.18,6.75,6.75,0,0,0-1.09-.08,2.35,2.35,0,0,0-1.75.57,2.21,2.21,0,0,0-.55,1.61v.62H574v1.65H570.3v8.39Z"/><path class="cls-3" d="M585.08,190l.54,0,.51.06.45.08a2,2,0,0,1,.34.1l-.32,2.18a9.07,9.07,0,0,0-2-.23,3.13,3.13,0,0,0-1.79.46,2.71,2.71,0,0,0-1,1.29v6.27h-2.22v-10h2.08l.1,1.57a4.62,4.62,0,0,1,1.45-1.28A3.77,3.77,0,0,1,585.08,190Z"/><path class="cls-3" d="M597.23,200.23a2,2,0,0,1-.15-.44c0-.17-.08-.35-.11-.54a3.75,3.75,0,0,1-.52.45,3.62,3.62,0,0,1-.65.37,4.12,4.12,0,0,1-.77.25,4.05,4.05,0,0,1-.89.09,4.32,4.32,0,0,1-1.44-.23,3.31,3.31,0,0,1-1.1-.63,2.79,2.79,0,0,1-1-2.14,2.84,2.84,0,0,1,1.2-2.47,5.91,5.91,0,0,1,3.45-.85h1.62v-.66a1.59,1.59,0,0,0-.54-1.27,2.25,2.25,0,0,0-1.52-.47,2.56,2.56,0,0,0-.78.11,1.63,1.63,0,0,0-.56.29,1.2,1.2,0,0,0-.33.44,1.32,1.32,0,0,0-.11.54h-2.22a2.53,2.53,0,0,1,.27-1.14,3,3,0,0,1,.8-1,4.09,4.09,0,0,1,1.29-.69A5.44,5.44,0,0,1,595,190a6,6,0,0,1,1.65.22,3.87,3.87,0,0,1,1.32.65,3,3,0,0,1,.87,1.08,3.39,3.39,0,0,1,.32,1.51v4.47a6.86,6.86,0,0,0,.1,1.2,3.84,3.84,0,0,0,.28.94v.16Zm-2.67-1.61a2.91,2.91,0,0,0,.8-.11,3,3,0,0,0,.68-.28,2.36,2.36,0,0,0,.52-.39,2.22,2.22,0,0,0,.35-.45v-1.88h-1.41a3.62,3.62,0,0,0-2,.44,1.41,1.41,0,0,0-.64,1.24,1.56,1.56,0,0,0,.1.57,1.19,1.19,0,0,0,.31.46,1.51,1.51,0,0,0,.53.3A2.34,2.34,0,0,0,594.56,198.63Z"/><path class="cls-3" d="M609.9,198.86a3.74,3.74,0,0,1-1.24,1.16,3.25,3.25,0,0,1-1.63.41,4,4,0,0,1-1.42-.24,2.7,2.7,0,0,1-1.1-.76,3.67,3.67,0,0,1-.71-1.34,6.53,6.53,0,0,1-.26-2v-5.94h2.22v6a5.58,5.58,0,0,0,.11,1.2,1.84,1.84,0,0,0,.33.75,1.21,1.21,0,0,0,.56.39,2.44,2.44,0,0,0,.8.12,2.65,2.65,0,0,0,1.44-.35,2.19,2.19,0,0,0,.83-.94v-7.12H612v10h-2Z"/><path class="cls-3" d="M615.8,195.14a7.38,7.38,0,0,1,.28-2.09,4.94,4.94,0,0,1,.8-1.62,3.55,3.55,0,0,1,2.91-1.42,3.53,3.53,0,0,1,1.46.28,3.26,3.26,0,0,1,1.1.81V186h2.23v14.25h-2l-.11-1a3.19,3.19,0,0,1-1.14.9,3.61,3.61,0,0,1-1.54.31,3.48,3.48,0,0,1-1.64-.38,3.75,3.75,0,0,1-1.25-1.06,5.07,5.07,0,0,1-.8-1.61,7,7,0,0,1-.28-2Zm2.22.2a5.93,5.93,0,0,0,.13,1.27,3.18,3.18,0,0,0,.41,1,2,2,0,0,0,1.78,1,2.16,2.16,0,0,0,1.24-.33,2.37,2.37,0,0,0,.77-.89V193a2.33,2.33,0,0,0-.78-.87,2.15,2.15,0,0,0-1.22-.33,2.06,2.06,0,0,0-1.06.26,2.1,2.1,0,0,0-.72.71,3.37,3.37,0,0,0-.42,1.06,5.85,5.85,0,0,0-.13,1.28Z"/><path class="cls-3" d="M631.59,199.13a1.25,1.25,0,0,1,.34-.9,1.27,1.27,0,0,1,1-.36,1.29,1.29,0,0,1,1,.36,1.24,1.24,0,0,1,.34.9,1.2,1.2,0,0,1-.34.88,1.31,1.31,0,0,1-1,.35,1.29,1.29,0,0,1-1-.35A1.21,1.21,0,0,1,631.59,199.13Zm2.35-3.47h-2.1l-.07-8.93H634Z"/><path class="cls-3" d="M151.51,229.48h-5.67v5.75H143.6V221.72h8.75v1.84h-6.5v4.09h5.67Z"/><path class="cls-3" d="M163,225l.54,0,.51.06.45.08a2,2,0,0,1,.34.1l-.32,2.18a9.07,9.07,0,0,0-2-.23,3.13,3.13,0,0,0-1.79.46,2.71,2.71,0,0,0-1,1.29v6.27h-2.22v-10h2.08l.1,1.57a4.62,4.62,0,0,1,1.45-1.28A3.77,3.77,0,0,1,163,225Z"/><path class="cls-3" d="M175.16,235.23a2,2,0,0,1-.15-.44c0-.17-.08-.35-.11-.54a3.75,3.75,0,0,1-.52.45,3.62,3.62,0,0,1-.65.37,4.12,4.12,0,0,1-.77.25,4.05,4.05,0,0,1-.89.09,4.32,4.32,0,0,1-1.44-.23,3.31,3.31,0,0,1-1.1-.63,2.79,2.79,0,0,1-1-2.14,2.84,2.84,0,0,1,1.2-2.47,5.91,5.91,0,0,1,3.45-.85h1.62v-.66a1.59,1.59,0,0,0-.54-1.27,2.25,2.25,0,0,0-1.52-.47,2.56,2.56,0,0,0-.78.11,1.63,1.63,0,0,0-.56.29,1.2,1.2,0,0,0-.33.44,1.32,1.32,0,0,0-.11.54h-2.22a2.53,2.53,0,0,1,.27-1.14,3,3,0,0,1,.8-1,4.09,4.09,0,0,1,1.29-.69,5.44,5.44,0,0,1,1.75-.26,6,6,0,0,1,1.65.22,3.87,3.87,0,0,1,1.32.65,3,3,0,0,1,.87,1.08,3.39,3.39,0,0,1,.32,1.51v4.47a6.86,6.86,0,0,0,.1,1.2,3.84,3.84,0,0,0,.28.94v.16Zm-2.67-1.61a2.91,2.91,0,0,0,.8-.11,3,3,0,0,0,.68-.28,2.36,2.36,0,0,0,.52-.39,2.22,2.22,0,0,0,.35-.45v-1.88h-1.41a3.62,3.62,0,0,0-2,.44,1.41,1.41,0,0,0-.64,1.24,1.56,1.56,0,0,0,.1.57,1.19,1.19,0,0,0,.31.46,1.51,1.51,0,0,0,.53.3A2.34,2.34,0,0,0,172.48,233.63Z"/><path class="cls-3" d="M187.83,233.86a3.74,3.74,0,0,1-1.24,1.16,3.25,3.25,0,0,1-1.63.41,4,4,0,0,1-1.42-.24,2.7,2.7,0,0,1-1.1-.76,3.67,3.67,0,0,1-.71-1.34,6.53,6.53,0,0,1-.26-2v-5.94h2.22v6a5.58,5.58,0,0,0,.11,1.2,1.84,1.84,0,0,0,.33.75,1.21,1.21,0,0,0,.56.39,2.44,2.44,0,0,0,.8.12,2.65,2.65,0,0,0,1.44-.35,2.19,2.19,0,0,0,.83-.94v-7.12H190v10h-2Z"/><path class="cls-3" d="M193.73,230.14a7.38,7.38,0,0,1,.28-2.09,4.94,4.94,0,0,1,.8-1.62,3.55,3.55,0,0,1,2.91-1.42,3.53,3.53,0,0,1,1.46.28,3.26,3.26,0,0,1,1.1.81V221h2.23v14.25h-2l-.11-1a3.19,3.19,0,0,1-1.14.9,3.61,3.61,0,0,1-1.54.31,3.48,3.48,0,0,1-1.64-.38,3.75,3.75,0,0,1-1.25-1.06,5.07,5.07,0,0,1-.8-1.61,7,7,0,0,1-.28-2Zm2.22.2a5.93,5.93,0,0,0,.13,1.27,3.18,3.18,0,0,0,.41,1,2,2,0,0,0,1.78,1,2.16,2.16,0,0,0,1.24-.33,2.37,2.37,0,0,0,.77-.89V228a2.33,2.33,0,0,0-.78-.87,2.15,2.15,0,0,0-1.22-.33,2.06,2.06,0,0,0-1.06.26,2.1,2.1,0,0,0-.72.71,3.37,3.37,0,0,0-.42,1.06,5.85,5.85,0,0,0-.13,1.28Z"/><path class="cls-3" d="M221.52,226.59a3.81,3.81,0,0,1,1.27-1.16,3.36,3.36,0,0,1,1.67-.42,4.27,4.27,0,0,1,1.43.23A2.83,2.83,0,0,1,227,226a3.34,3.34,0,0,1,.72,1.25A5.71,5.71,0,0,1,228,229v6.19h-2.22V229a3,3,0,0,0-.14-1,1.82,1.82,0,0,0-.41-.68,1.64,1.64,0,0,0-.65-.4,2.89,2.89,0,0,0-2.14.17,2.59,2.59,0,0,0-.91.81v7.29H219.3V221h2.22Z"/><path class="cls-3" d="M231.53,230.12a6.23,6.23,0,0,1,.32-2,4.81,4.81,0,0,1,.92-1.62,4.2,4.2,0,0,1,1.46-1.08,4.71,4.71,0,0,1,2-.39,4.76,4.76,0,0,1,2,.39,4.19,4.19,0,0,1,1.47,1.08,4.74,4.74,0,0,1,.91,1.62,6.31,6.31,0,0,1,.32,2v.19a6.35,6.35,0,0,1-.32,2,4.68,4.68,0,0,1-.91,1.62,4.22,4.22,0,0,1-1.46,1.07,4.71,4.71,0,0,1-2,.39,4.76,4.76,0,0,1-2-.39,4.21,4.21,0,0,1-1.47-1.07,4.75,4.75,0,0,1-.92-1.62,6.27,6.27,0,0,1-.32-2Zm2.22.19a5.56,5.56,0,0,0,.14,1.29,3.31,3.31,0,0,0,.45,1.06,2.21,2.21,0,0,0,.77.72,2.19,2.19,0,0,0,1.1.26,2.12,2.12,0,0,0,1.08-.26,2.22,2.22,0,0,0,.76-.72,3.31,3.31,0,0,0,.45-1.06,5.56,5.56,0,0,0,.14-1.29v-.19a5.48,5.48,0,0,0-.14-1.27,3.25,3.25,0,0,0-.45-1.06,2.3,2.3,0,0,0-.76-.72,2.37,2.37,0,0,0-2.19,0,2.24,2.24,0,0,0-.76.72,3.31,3.31,0,0,0-.44,1.06,5.48,5.48,0,0,0-.14,1.27Z"/><path class="cls-3" d="M249,222.76v2.43h3.79v1.65H249v4.81a2.78,2.78,0,0,0,.13.94,1.46,1.46,0,0,0,.38.59,1.33,1.33,0,0,0,.57.31,2.69,2.69,0,0,0,.71.09,5.54,5.54,0,0,0,.6,0l.6-.07.54-.09.41-.1.25,1.53a3.32,3.32,0,0,1-.58.25,5.17,5.17,0,0,1-.74.19c-.27,0-.54.09-.83.12s-.57,0-.85,0a4.35,4.35,0,0,1-1.38-.21,2.76,2.76,0,0,1-1.08-.65,3,3,0,0,1-.71-1.13,4.77,4.77,0,0,1-.26-1.66v-4.94h-2.45v-1.65h2.45v-2.43Z"/><path class="cls-3" d="M257.62,221h5.43V233.4h3.06v1.84h-8.49V233.4h3.19V222.83h-3.19Z"/><path class="cls-3" d="M270.34,225.19h5.35v8.2h3v1.84h-8.33V233.4h3.12V227h-3.12Zm2.93-2.6a1.17,1.17,0,0,1,.33-.86,1.26,1.26,0,0,1,.94-.34,1.29,1.29,0,0,1,1,.34,1.26,1.26,0,0,1,0,1.72,1.29,1.29,0,0,1-1,.34,1.26,1.26,0,0,1-.94-.34A1.17,1.17,0,0,1,273.27,222.6Z"/><path class="cls-3" d="M284.49,225.19l.14,1.39a3.89,3.89,0,0,1,1.32-1.16,3.6,3.6,0,0,1,1.72-.41,4.23,4.23,0,0,1,1.41.22,2.77,2.77,0,0,1,1.09.7,3.2,3.2,0,0,1,.71,1.22,5.65,5.65,0,0,1,.25,1.81v6.27h-2.22V229a3.23,3.23,0,0,0-.14-1,1.63,1.63,0,0,0-.41-.67,1.51,1.51,0,0,0-.64-.36,3.23,3.23,0,0,0-.86-.11,2.44,2.44,0,0,0-1.28.33,2.52,2.52,0,0,0-.88.88v7.2h-2.23v-10Z"/><path class="cls-3" d="M299.8,235.42a5.38,5.38,0,0,1-2-.37,4.7,4.7,0,0,1-1.57-1,4.55,4.55,0,0,1-1-1.54,5,5,0,0,1-.36-1.92v-.38a5.71,5.71,0,0,1,.38-2.15,5.08,5.08,0,0,1,1-1.63,4.41,4.41,0,0,1,1.5-1,4.57,4.57,0,0,1,1.8-.36,4.76,4.76,0,0,1,1.93.37,3.81,3.81,0,0,1,1.4,1,4.52,4.52,0,0,1,.85,1.57,6.6,6.6,0,0,1,.29,2v.94h-7a3.29,3.29,0,0,0,.29,1.08,2.89,2.89,0,0,0,.61.87,2.76,2.76,0,0,0,.88.58,2.89,2.89,0,0,0,1.11.21,3.6,3.6,0,0,0,1.55-.33,3.07,3.07,0,0,0,1.16-.92l1.21,1.13a3.64,3.64,0,0,1-.62.7,4.33,4.33,0,0,1-.89.6,5.42,5.42,0,0,1-1.15.43A5.64,5.64,0,0,1,299.8,235.42Zm-.27-8.62a2.21,2.21,0,0,0-.86.17,2.17,2.17,0,0,0-.71.49,2.83,2.83,0,0,0-.53.78,3.81,3.81,0,0,0-.31,1h4.7v-.17a3.21,3.21,0,0,0-.17-.86,2.28,2.28,0,0,0-.42-.74,2,2,0,0,0-.7-.52A2.34,2.34,0,0,0,299.54,226.8Z"/><path class="cls-3" d="M310.83,226a1.74,1.74,0,0,1,.11-.61,1.38,1.38,0,0,1,.31-.5,1.45,1.45,0,0,1,.51-.33,2,2,0,0,1,1.38,0,1.51,1.51,0,0,1,.51.33,1.37,1.37,0,0,1,.32.5,1.76,1.76,0,0,1,.11.61,1.65,1.65,0,0,1-.11.6,1.35,1.35,0,0,1-.32.48,1.49,1.49,0,0,1-.51.32,2.11,2.11,0,0,1-1.38,0,1.43,1.43,0,0,1-.51-.32,1.36,1.36,0,0,1-.31-.48A1.63,1.63,0,0,1,310.83,226Zm0,7.9a1.75,1.75,0,0,1,.11-.61,1.39,1.39,0,0,1,.31-.5,1.45,1.45,0,0,1,.51-.33,2,2,0,0,1,1.38,0,1.5,1.5,0,0,1,.51.33,1.38,1.38,0,0,1,.32.5,1.77,1.77,0,0,1,.11.61,1.65,1.65,0,0,1-.11.6,1.36,1.36,0,0,1-.32.48,1.48,1.48,0,0,1-.51.32,2.11,2.11,0,0,1-1.38,0,1.43,1.43,0,0,1-.51-.32,1.37,1.37,0,0,1-.31-.48A1.63,1.63,0,0,1,310.83,233.91Z"/><path class="cls-3" d="M338.33,227.81h3.54v2.09h-3.54v4h-2.16v-4h-3.55v-2.09h3.55V224h2.16Z"/><path class="cls-3" d="M352.28,221.67v1.89h-.15a5.39,5.39,0,0,0-2,.32,3.85,3.85,0,0,0-1.36.87A3.68,3.68,0,0,0,348,226a5.66,5.66,0,0,0-.36,1.55,4.14,4.14,0,0,1,.51-.48,3.92,3.92,0,0,1,.64-.41,3.75,3.75,0,0,1,.76-.29,3.44,3.44,0,0,1,.87-.11,3.67,3.67,0,0,1,1.72.38,3.53,3.53,0,0,1,1.2,1,4.32,4.32,0,0,1,.71,1.44,6.12,6.12,0,0,1,.23,1.68,5.47,5.47,0,0,1-.29,1.81,4.25,4.25,0,0,1-.85,1.46,3.92,3.92,0,0,1-1.37,1,4.58,4.58,0,0,1-1.86.36A4.19,4.19,0,0,1,348,235a4.26,4.26,0,0,1-1.42-1.17,5.22,5.22,0,0,1-.87-1.68,6.7,6.7,0,0,1-.3-2v-.86a12.64,12.64,0,0,1,.15-1.94,8.52,8.52,0,0,1,.48-1.79,6.7,6.7,0,0,1,.85-1.55,5.33,5.33,0,0,1,1.26-1.22,6,6,0,0,1,1.71-.8,7.78,7.78,0,0,1,2.21-.29Zm-2.4,6.42a2.33,2.33,0,0,0-.73.12A2.43,2.43,0,0,0,348,229a2.61,2.61,0,0,0-.37.65v.63a5.16,5.16,0,0,0,.18,1.44,3.21,3.21,0,0,0,.5,1,2.14,2.14,0,0,0,.72.63,1.89,1.89,0,0,0,.87.21,2,2,0,0,0,.93-.2,2,2,0,0,0,.69-.57,2.6,2.6,0,0,0,.43-.87,3.93,3.93,0,0,0,.15-1.11,4.06,4.06,0,0,0-.14-1.07,2.73,2.73,0,0,0-.42-.89,2.07,2.07,0,0,0-.69-.6A2,2,0,0,0,349.88,228.09Z"/><path class="cls-3" d="M367,230.09a8,8,0,0,1-.3,2.31,4.65,4.65,0,0,1-.87,1.67,3.6,3.6,0,0,1-1.38,1,5.05,5.05,0,0,1-3.66,0,3.64,3.64,0,0,1-1.39-1,4.7,4.7,0,0,1-.88-1.67,7.77,7.77,0,0,1-.31-2.31v-3.23a7.91,7.91,0,0,1,.31-2.31,4.7,4.7,0,0,1,.88-1.67,3.65,3.65,0,0,1,1.38-1,4.64,4.64,0,0,1,1.82-.34,4.71,4.71,0,0,1,1.84.34,3.65,3.65,0,0,1,1.39,1,4.7,4.7,0,0,1,.88,1.67,7.91,7.91,0,0,1,.31,2.31Zm-6.57-.84,4.32-3.22a3.56,3.56,0,0,0-.61-2,1.88,1.88,0,0,0-1.55-.66,1.85,1.85,0,0,0-1.62.77,4.17,4.17,0,0,0-.54,2.37Zm4.34-1.47L360.44,231q.17,2.65,2.16,2.65,2.16,0,2.16-3.16Z"/><path class="cls-3" d="M373.26,227.48h1.33a3.07,3.07,0,0,0,1-.15,1.94,1.94,0,0,0,.72-.43,1.77,1.77,0,0,0,.43-.66,2.41,2.41,0,0,0,.14-.85,2.09,2.09,0,0,0-.52-1.52,2.07,2.07,0,0,0-1.55-.53,2.55,2.55,0,0,0-.84.13,2,2,0,0,0-.67.39,1.74,1.74,0,0,0-.44.6,1.93,1.93,0,0,0-.16.8h-2.22a3.4,3.4,0,0,1,.32-1.47,3.53,3.53,0,0,1,.89-1.17,4.2,4.2,0,0,1,1.36-.78,5.07,5.07,0,0,1,1.72-.28,5.93,5.93,0,0,1,1.75.25,3.78,3.78,0,0,1,1.36.73,3.27,3.27,0,0,1,.88,1.2,4.12,4.12,0,0,1,.32,1.67,2.91,2.91,0,0,1-.12.82,3.13,3.13,0,0,1-.37.81,3.5,3.5,0,0,1-.62.73,3.44,3.44,0,0,1-.89.57,3.43,3.43,0,0,1,1,.55,3,3,0,0,1,.68.75,2.91,2.91,0,0,1,.37.89,4.2,4.2,0,0,1,.11,1,4,4,0,0,1-.34,1.69,3.51,3.51,0,0,1-1,1.25,4.22,4.22,0,0,1-1.43.77,6,6,0,0,1-3.46,0,4.22,4.22,0,0,1-1.41-.72,3.53,3.53,0,0,1-1-1.19,3.58,3.58,0,0,1-.36-1.65h2.22a2.11,2.11,0,0,0,.16.82,1.79,1.79,0,0,0,.45.64,2.13,2.13,0,0,0,.7.41,2.69,2.69,0,0,0,.92.15,2.36,2.36,0,0,0,1.67-.56,2.11,2.11,0,0,0,.61-1.63,2.61,2.61,0,0,0-.18-1,1.78,1.78,0,0,0-.51-.7,2.13,2.13,0,0,0-.79-.4,3.88,3.88,0,0,0-1-.13h-1.33Z"/><path class="cls-3" d="M391.89,230.2h-7.43v-1.79h7.43Z"/><path class="cls-3" d="M396.6,228.53l.73-6.81h7.23v2h-5.39l-.34,3.2a4.82,4.82,0,0,1,.86-.36,4,4,0,0,1,1.24-.18,4.42,4.42,0,0,1,1.71.31,3.45,3.45,0,0,1,1.28.91,4.06,4.06,0,0,1,.8,1.43,6,6,0,0,1,.28,1.9,5.69,5.69,0,0,1-.26,1.76,3.92,3.92,0,0,1-.81,1.43,3.82,3.82,0,0,1-1.37,1,4.93,4.93,0,0,1-1.95.35,5.31,5.31,0,0,1-1.62-.25,4.25,4.25,0,0,1-1.38-.72,3.79,3.79,0,0,1-1-1.19,3.94,3.94,0,0,1-.44-1.66h2.14a2.33,2.33,0,0,0,.73,1.53,2.27,2.27,0,0,0,1.55.52,2.11,2.11,0,0,0,1-.21,1.84,1.84,0,0,0,.68-.57,2.57,2.57,0,0,0,.4-.88,4.49,4.49,0,0,0,.13-1.13,3.61,3.61,0,0,0-.15-1.08,2.36,2.36,0,0,0-.46-.85,2.14,2.14,0,0,0-.76-.56,2.53,2.53,0,0,0-1-.21,3.4,3.4,0,0,0-.69.06,2.43,2.43,0,0,0-.51.17,2.07,2.07,0,0,0-.41.25l-.37.32Z"/><path class="cls-3" d="M417.29,225.29a3.14,3.14,0,0,1-.51,1.77,3.53,3.53,0,0,1-1.39,1.22,4.11,4.11,0,0,1,.9.57,3.67,3.67,0,0,1,.69.75,3.32,3.32,0,0,1,.44.91,3.54,3.54,0,0,1,.15,1.05,3.83,3.83,0,0,1-.34,1.66,3.47,3.47,0,0,1-.94,1.21,4.11,4.11,0,0,1-1.4.74,5.78,5.78,0,0,1-1.72.25,5.93,5.93,0,0,1-1.75-.25,4.1,4.1,0,0,1-1.41-.74,3.41,3.41,0,0,1-.93-1.21,3.88,3.88,0,0,1-.34-1.66,3.62,3.62,0,0,1,.15-1.06,3.4,3.4,0,0,1,.44-.92,3.59,3.59,0,0,1,.69-.75,3.87,3.87,0,0,1,.9-.56,3.48,3.48,0,0,1-1.37-1.22,3.18,3.18,0,0,1-.5-1.77,4,4,0,0,1,.31-1.6,3.29,3.29,0,0,1,.85-1.18,3.65,3.65,0,0,1,1.29-.72,5.62,5.62,0,0,1,3.29,0,3.79,3.79,0,0,1,1.31.72,3.28,3.28,0,0,1,.87,1.18A3.92,3.92,0,0,1,417.29,225.29Zm-1.93,6.16a2.6,2.6,0,0,0-.16-.93,2.07,2.07,0,0,0-.45-.71,2,2,0,0,0-.69-.46,2.6,2.6,0,0,0-1.81,0,1.93,1.93,0,0,0-.69.46,2,2,0,0,0-.44.71,2.69,2.69,0,0,0-.15.93,2,2,0,0,0,2.2,2.2,2.55,2.55,0,0,0,.89-.15,1.89,1.89,0,0,0,.69-.44,2,2,0,0,0,.45-.69A2.51,2.51,0,0,0,415.36,231.45Zm-.29-6.09a2.37,2.37,0,0,0-.14-.82,1.91,1.91,0,0,0-.39-.64,1.7,1.7,0,0,0-.61-.42,2,2,0,0,0-.78-.15,2.09,2.09,0,0,0-.78.14,1.57,1.57,0,0,0-.59.4,1.8,1.8,0,0,0-.37.64,2.58,2.58,0,0,0-.13.85,2.48,2.48,0,0,0,.13.84,1.83,1.83,0,0,0,.38.64,1.7,1.7,0,0,0,.6.41,2,2,0,0,0,.79.15,2,2,0,0,0,.78-.15,1.7,1.7,0,0,0,.6-.41,1.85,1.85,0,0,0,.38-.64A2.48,2.48,0,0,0,415.07,225.36Z"/><path class="cls-3" d="M423.32,233.4a6.25,6.25,0,0,0,2-.28,3.49,3.49,0,0,0,1.33-.78,3.12,3.12,0,0,0,.76-1.18,5.72,5.72,0,0,0,.31-1.48,3.11,3.11,0,0,1-.47.43,3.29,3.29,0,0,1-.59.35,3.58,3.58,0,0,1-.72.24,4,4,0,0,1-.87.09,3.73,3.73,0,0,1-1.73-.38,3.55,3.55,0,0,1-1.21-1,4.29,4.29,0,0,1-.72-1.44,6.12,6.12,0,0,1-.24-1.71,5.71,5.71,0,0,1,.29-1.83,4.35,4.35,0,0,1,.84-1.5,4,4,0,0,1,1.37-1,4.41,4.41,0,0,1,1.85-.37,4,4,0,0,1,3.34,1.64,5.3,5.3,0,0,1,.83,1.75A7.9,7.9,0,0,1,430,227v.72a14.16,14.16,0,0,1-.13,1.9,8.58,8.58,0,0,1-.43,1.77,6.44,6.44,0,0,1-.8,1.54,5,5,0,0,1-1.23,1.22,5.9,5.9,0,0,1-1.74.81,8.38,8.38,0,0,1-2.32.29h-.18V233.4Zm2.23-4.37a2.21,2.21,0,0,0,.73-.12,2.32,2.32,0,0,0,.64-.33,2.54,2.54,0,0,0,.86-1.16v-.73a5.19,5.19,0,0,0-.18-1.44,3.34,3.34,0,0,0-.49-1,2.07,2.07,0,0,0-.71-.63,1.79,1.79,0,0,0-.85-.21,1.85,1.85,0,0,0-.92.22,2,2,0,0,0-.67.61,2.86,2.86,0,0,0-.42.91,4.12,4.12,0,0,0-.14,1.11,4.29,4.29,0,0,0,.13,1.07,2.88,2.88,0,0,0,.39.9,2,2,0,0,0,.67.63A1.87,1.87,0,0,0,425.55,229Z"/><path class="cls-3" d="M440.14,235.23h-2.24V224.46l-3.45,1.26v-1.95l5.55-2.05h.14Z"/><path class="cls-3" d="M466.72,230.44h1.7v1.79h-1.7v3h-2.22v-3h-5.86l-.06-1.35,5.84-9.16h2.29Zm-5.85,0h3.64v-5.75l-.24.44Z"/><path class="cls-3" d="M480.78,223l-5.41,12.27H473l5.41-11.66h-7v-1.85h9.34Z"/><path class="cls-3" d="M492,230.44h1.7v1.79H492v3h-2.22v-3h-5.86l-.06-1.35,5.84-9.16H492Zm-5.85,0h3.64v-5.75l-.24.44Z"/><path class="cls-3" d="M504.64,230.44h1.7v1.79h-1.7v3h-2.22v-3h-5.86l-.06-1.35,5.84-9.16h2.29Zm-5.85,0h3.64v-5.75l-.24.44Z"/><rect class="cls-4" x="444.42" y="266.57" width="207.43" height="40" rx="20" ry="20"/><path class="cls-5" d="M493.41,288.22h-4.73v5h-1.46V281.87h7v1.23h-5.52V287h4.73Z"/><path class="cls-5" d="M496.91,284.79h4.32V292H504v1.25h-7.08V292h2.88v-5.95h-2.87Zm2.69-2.22a.89.89,0,0,1,.21-.61,1,1,0,0,1,1.3,0,.88.88,0,0,1,.22.61.83.83,0,0,1-.22.59,1,1,0,0,1-1.3,0A.83.83,0,0,1,499.6,282.58Z"/><path class="cls-5" d="M507.58,284.79l.1,1.25a3.35,3.35,0,0,1,1.13-1,3.11,3.11,0,0,1,1.5-.38,3.68,3.68,0,0,1,1.21.19,2.3,2.3,0,0,1,.93.59,2.66,2.66,0,0,1,.59,1,4.58,4.58,0,0,1,.21,1.46v5.37H511.8v-5.34a3.17,3.17,0,0,0-.12-1,1.51,1.51,0,0,0-.37-.63,1.45,1.45,0,0,0-.6-.35,2.77,2.77,0,0,0-.82-.11,2.27,2.27,0,0,0-1.28.36,2.68,2.68,0,0,0-.88,1v6.06h-1.45v-8.45Z"/><path class="cls-5" d="M515.62,289a6,6,0,0,1,.24-1.74,4.17,4.17,0,0,1,.68-1.36,3.16,3.16,0,0,1,1.07-.89,3,3,0,0,1,1.4-.32,3.22,3.22,0,0,1,1.32.25,2.76,2.76,0,0,1,1,.74v-4.38h1.45v12h-1.33l-.06-.89a2.76,2.76,0,0,1-1,.78,3.29,3.29,0,0,1-1.37.27,2.92,2.92,0,0,1-1.39-.33,3.18,3.18,0,0,1-1.06-.91,4.36,4.36,0,0,1-.68-1.36,5.72,5.72,0,0,1-.24-1.69Zm1.45.16a5,5,0,0,0,.13,1.17,3.07,3.07,0,0,0,.41,1,2.06,2.06,0,0,0,.71.67,2,2,0,0,0,1,.25,2.37,2.37,0,0,0,.66-.09,2,2,0,0,0,.54-.25,2,2,0,0,0,.43-.38,2.63,2.63,0,0,0,.33-.5V287a2.45,2.45,0,0,0-.76-.85,2,2,0,0,0-1.19-.33,2.05,2.05,0,0,0-1,.25,2.07,2.07,0,0,0-.71.68,3.12,3.12,0,0,0-.41,1,5.05,5.05,0,0,0-.13,1.18Z"/><path class="cls-5" d="M542.49,288.22a8.53,8.53,0,0,1-.11,1.23,6.8,6.8,0,0,1-.3,1.2,5.28,5.28,0,0,1-.52,1.08,3.87,3.87,0,0,1-.75.88,3.36,3.36,0,0,1-1,.59,3.86,3.86,0,0,1-2.54,0,3.36,3.36,0,0,1-1-.59,3.92,3.92,0,0,1-.76-.88,5.37,5.37,0,0,1-.53-1.08,6.84,6.84,0,0,1-.31-1.2,8.19,8.19,0,0,1-.11-1.23v-1.3a8.53,8.53,0,0,1,.11-1.23,6.64,6.64,0,0,1,.3-1.2,5.51,5.51,0,0,1,.52-1.08,3.91,3.91,0,0,1,.75-.88,3.31,3.31,0,0,1,1-.59,3.87,3.87,0,0,1,2.54,0,3.36,3.36,0,0,1,1,.59,3.83,3.83,0,0,1,.75.88,5.51,5.51,0,0,1,.52,1.08,6.62,6.62,0,0,1,.3,1.2,8.62,8.62,0,0,1,.11,1.23Zm-1.43-1.31c0-.27,0-.55-.05-.85a6,6,0,0,0-.16-.87,4.65,4.65,0,0,0-.3-.83,2.72,2.72,0,0,0-.47-.7,2,2,0,0,0-1.55-.65,2.05,2.05,0,0,0-.88.18,2.17,2.17,0,0,0-.66.48,2.72,2.72,0,0,0-.47.7,4.65,4.65,0,0,0-.3.83,6.42,6.42,0,0,0-.16.88q-.05.44-.06.84v1.31q0,.4.06.84a6,6,0,0,0,.17.88,5,5,0,0,0,.3.83,2.69,2.69,0,0,0,.47.7,2.17,2.17,0,0,0,.66.48,2.07,2.07,0,0,0,.89.18,2,2,0,0,0,1.56-.66,2.69,2.69,0,0,0,.46-.7,4.87,4.87,0,0,0,.3-.83,5.6,5.6,0,0,0,.16-.88c0-.3,0-.58.05-.85Z"/><path class="cls-5" d="M550.18,292.08a2.9,2.9,0,0,1-2.52,1.32,3.34,3.34,0,0,1-1.2-.21,2.3,2.3,0,0,1-.92-.64,3,3,0,0,1-.59-1.11,5.59,5.59,0,0,1-.21-1.62v-5h1.45v5a5,5,0,0,0,.11,1.14,1.82,1.82,0,0,0,.33.72,1.17,1.17,0,0,0,.54.38,2.22,2.22,0,0,0,.73.11,2.55,2.55,0,0,0,1.43-.36,2.17,2.17,0,0,0,.81-1v-6.06h1.45v8.45h-1.31Z"/><path class="cls-5" d="M557.72,282.75v2h3.22v1.12h-3.22v4.59a2.27,2.27,0,0,0,.13.81,1.29,1.29,0,0,0,.34.51,1.25,1.25,0,0,0,.5.27,2.3,2.3,0,0,0,.61.08l.48,0,.49-.07.45-.08.34-.07.2,1a2,2,0,0,1-.44.19,4.93,4.93,0,0,1-.56.14q-.3.06-.64.09t-.68,0a3.36,3.36,0,0,1-1.05-.16,2.18,2.18,0,0,1-.85-.51,2.4,2.4,0,0,1-.57-.9,3.81,3.81,0,0,1-.21-1.33v-4.59H554v-1.12h2.22v-2Z"/><path class="cls-5" d="M575.08,281.87l1.85,5.69,2-5.69h1.8v11.38h-1.41v-4.54l.12-4.75-2.1,6.13h-.83l-1.93-6,.12,4.59v4.54H573.3V281.87Z"/><path class="cls-5" d="M582.69,288.94a5.28,5.28,0,0,1,.27-1.7,4.06,4.06,0,0,1,.76-1.36,3.55,3.55,0,0,1,1.21-.91,3.73,3.73,0,0,1,1.6-.33,3.78,3.78,0,0,1,1.61.33,3.54,3.54,0,0,1,1.21.91,4.06,4.06,0,0,1,.76,1.36,5.28,5.28,0,0,1,.27,1.7v.17a5.24,5.24,0,0,1-.27,1.7,4.07,4.07,0,0,1-.76,1.36,3.51,3.51,0,0,1-1.21.91,3.78,3.78,0,0,1-1.6.33,3.83,3.83,0,0,1-1.61-.33,3.49,3.49,0,0,1-1.21-.91,4.07,4.07,0,0,1-.76-1.36,5.24,5.24,0,0,1-.27-1.7Zm1.45.17a4.7,4.7,0,0,0,.15,1.19,3.08,3.08,0,0,0,.45,1,2.22,2.22,0,0,0,.75.68,2.14,2.14,0,0,0,1.05.25,2.11,2.11,0,0,0,1-.25,2.23,2.23,0,0,0,.75-.68,3.08,3.08,0,0,0,.45-1,4.7,4.7,0,0,0,.15-1.19v-.17a4.54,4.54,0,0,0-.15-1.18,3.14,3.14,0,0,0-.45-1,2.26,2.26,0,0,0-.75-.68,2.1,2.1,0,0,0-1.05-.25,2.08,2.08,0,0,0-1,.25,2.28,2.28,0,0,0-.75.68,3.08,3.08,0,0,0-.45,1,4.67,4.67,0,0,0-.15,1.18Z"/><path class="cls-5" d="M598.24,284.64h.42l.42,0,.37.07.28.09-.2,1.41a7.6,7.6,0,0,0-.8-.14,7.12,7.12,0,0,0-.79,0,2.71,2.71,0,0,0-1.64.46,2.67,2.67,0,0,0-.93,1.29v5.42h-1.45v-8.45h1.38l.07,1.34a3.89,3.89,0,0,1,1.24-1.1A3.32,3.32,0,0,1,598.24,284.64Z"/><path class="cls-5" d="M606,293.4a4.29,4.29,0,0,1-1.64-.3,3.72,3.72,0,0,1-1.28-.85,3.89,3.89,0,0,1-.83-1.3,4.39,4.39,0,0,1-.3-1.63V289a4.84,4.84,0,0,1,.33-1.83,4.19,4.19,0,0,1,.87-1.37,3.81,3.81,0,0,1,1.23-.86,3.56,3.56,0,0,1,1.42-.3,3.77,3.77,0,0,1,1.6.32,3.13,3.13,0,0,1,1.14.88,3.74,3.74,0,0,1,.68,1.32,5.79,5.79,0,0,1,.22,1.64v.65h-6a3.32,3.32,0,0,0,.22,1.09,2.83,2.83,0,0,0,.55.89,2.51,2.51,0,0,0,.83.6,2.58,2.58,0,0,0,1.07.22,2.94,2.94,0,0,0,1.38-.31,3,3,0,0,0,1-.83l.88.69a3.34,3.34,0,0,1-.53.61,3.64,3.64,0,0,1-.73.52,4.09,4.09,0,0,1-.94.36A4.52,4.52,0,0,1,606,293.4Zm-.19-7.58a2.17,2.17,0,0,0-.83.16,2.14,2.14,0,0,0-.7.47,2.69,2.69,0,0,0-.53.76,3.6,3.6,0,0,0-.3,1H608v-.11a3.24,3.24,0,0,0-.16-.84,2.33,2.33,0,0,0-.4-.74,2,2,0,0,0-.67-.53A2.1,2.1,0,0,0,605.85,285.83Z"/><polygon class="cls-2" points="865.25 321.95 858.2 307.65 842.43 305.36 853.84 294.24 851.14 278.53 865.25 285.95 879.36 278.53 876.66 294.24 888.08 305.36 872.3 307.65 865.25 321.95"/><circle class="cls-2" cx="862.58" cy="227.95" r="80.67"/><circle class="cls-6" cx="862.58" cy="227.95" r="75.46"/><text class="cls-7" transform="translate(893.08 222.59)"></text><path class="cls-5" d="M804.39,223.71a1.77,1.77,0,0,0-.27-1,2.39,2.39,0,0,0-.69-.68,4.46,4.46,0,0,0-.93-.46l-1-.33q-.68-.22-1.38-.53a6,6,0,0,1-1.27-.76,3.78,3.78,0,0,1-.94-1.06,2.75,2.75,0,0,1-.36-1.44,3,3,0,0,1,.36-1.48,3.55,3.55,0,0,1,1-1.1,4.32,4.32,0,0,1,1.34-.68,5.05,5.05,0,0,1,1.5-.23,4.71,4.71,0,0,1,1.61.28,4.42,4.42,0,0,1,1.37.78,3.81,3.81,0,0,1,1,1.21,3.64,3.64,0,0,1,.38,1.59h-1.67a3.57,3.57,0,0,0-.27-1,2.5,2.5,0,0,0-.54-.78,2.36,2.36,0,0,0-.8-.51,2.86,2.86,0,0,0-1-.18,3.18,3.18,0,0,0-.91.13,2.45,2.45,0,0,0-.79.4,2,2,0,0,0-.55.65,1.86,1.86,0,0,0-.21.9,1.61,1.61,0,0,0,.28.94,2.41,2.41,0,0,0,.69.65,4.61,4.61,0,0,0,.91.44l.92.31q.47.15,1,.34a7.94,7.94,0,0,1,.93.43,5.9,5.9,0,0,1,.83.55,3.73,3.73,0,0,1,.68.7,3.1,3.1,0,0,1,.62,1.9,2.89,2.89,0,0,1-.38,1.5,3.45,3.45,0,0,1-1,1.07,4.45,4.45,0,0,1-1.37.64,5.66,5.66,0,0,1-1.53.21,5.41,5.41,0,0,1-1.67-.26,4.81,4.81,0,0,1-1.46-.76,4,4,0,0,1-1-1.21,3.47,3.47,0,0,1-.43-1.63h1.66a3.09,3.09,0,0,0,.33,1.06,2.58,2.58,0,0,0,.63.78,2.63,2.63,0,0,0,.89.48,3.55,3.55,0,0,0,1.1.16,3.8,3.8,0,0,0,.94-.12,2.58,2.58,0,0,0,.82-.37,2,2,0,0,0,.59-.63A1.74,1.74,0,0,0,804.39,223.71Z"/><path class="cls-5" d="M812.7,227.12a4.83,4.83,0,0,1-1.84-.34,4.18,4.18,0,0,1-1.44-1,4.38,4.38,0,0,1-.93-1.46,5,5,0,0,1-.33-1.84v-.37a5.45,5.45,0,0,1,.37-2.06,4.73,4.73,0,0,1,1-1.54,4.29,4.29,0,0,1,1.39-1,4,4,0,0,1,1.6-.33,4.25,4.25,0,0,1,1.8.36,3.55,3.55,0,0,1,1.28,1,4.19,4.19,0,0,1,.76,1.48,6.49,6.49,0,0,1,.25,1.85v.73h-6.79a3.76,3.76,0,0,0,.25,1.22,3.18,3.18,0,0,0,.62,1,2.83,2.83,0,0,0,.94.67,2.89,2.89,0,0,0,1.2.25,3.31,3.31,0,0,0,1.55-.35,3.36,3.36,0,0,0,1.13-.93l1,.77a3.84,3.84,0,0,1-.59.69,4.17,4.17,0,0,1-.82.58A4.58,4.58,0,0,1,814,227,5.07,5.07,0,0,1,812.7,227.12Zm-.21-8.53a2.41,2.41,0,0,0-1.72.71,3,3,0,0,0-.59.85,4,4,0,0,0-.34,1.16h5.12v-.12a3.67,3.67,0,0,0-.18-.94,2.64,2.64,0,0,0-.45-.83,2.27,2.27,0,0,0-.75-.6A2.36,2.36,0,0,0,812.49,218.6Z"/><path class="cls-5" d="M823.35,225.8a2.66,2.66,0,0,0,.86-.14,2.55,2.55,0,0,0,.74-.39,2,2,0,0,0,.52-.59,1.48,1.48,0,0,0,.21-.73h1.54a2.53,2.53,0,0,1-.33,1.21,3.49,3.49,0,0,1-.86,1,4.35,4.35,0,0,1-1.23.69,4.11,4.11,0,0,1-1.45.26,4.34,4.34,0,0,1-1.89-.39,3.92,3.92,0,0,1-1.35-1,4.51,4.51,0,0,1-.81-1.51,5.93,5.93,0,0,1-.27-1.81V222a5.94,5.94,0,0,1,.27-1.8,4.5,4.5,0,0,1,.81-1.52,3.93,3.93,0,0,1,1.35-1,4.73,4.73,0,0,1,3.44-.12,3.85,3.85,0,0,1,1.22.73,3.28,3.28,0,0,1,.8,1.09,3.21,3.21,0,0,1,.29,1.35h-1.54a2,2,0,0,0-.19-.81,2.2,2.2,0,0,0-.49-.67,2.26,2.26,0,0,0-.73-.46,2.5,2.5,0,0,0-.92-.17,2.35,2.35,0,0,0-2.1,1.09,3.35,3.35,0,0,0-.45,1.09,5.56,5.56,0,0,0-.14,1.22v.37a5.64,5.64,0,0,0,.14,1.23,3.37,3.37,0,0,0,.45,1.1,2.43,2.43,0,0,0,.83.79A2.49,2.49,0,0,0,823.35,225.8Z"/><path class="cls-5" d="M836.27,225.64a3.26,3.26,0,0,1-2.83,1.49,3.77,3.77,0,0,1-1.35-.23,2.6,2.6,0,0,1-1-.73,3.37,3.37,0,0,1-.66-1.25,6.27,6.27,0,0,1-.23-1.82v-5.65h1.63v5.67a5.59,5.59,0,0,0,.12,1.28,2,2,0,0,0,.37.81,1.32,1.32,0,0,0,.6.43,2.51,2.51,0,0,0,.82.12,2.86,2.86,0,0,0,1.6-.4,2.46,2.46,0,0,0,.91-1.09v-6.82h1.63v9.51h-1.48Z"/><path class="cls-5" d="M847.13,217.26h.47l.47,0,.41.08.31.1-.22,1.59a8.69,8.69,0,0,0-.9-.15,7.94,7.94,0,0,0-.89,0,3.05,3.05,0,0,0-1.85.52,3,3,0,0,0-1,1.45v6.1h-1.63v-9.51h1.55l.08,1.51a4.37,4.37,0,0,1,1.39-1.23A3.74,3.74,0,0,1,847.13,217.26Z"/><path class="cls-5" d="M852,217.44h4.86v8.1h3.1v1.41h-8v-1.41h3.23v-6.69H852Zm3-2.5a1,1,0,0,1,.24-.68,1.11,1.11,0,0,1,1.46,0,1,1,0,0,1,.25.68.93.93,0,0,1-.25.66,1.15,1.15,0,0,1-1.46,0A.94.94,0,0,1,855,214.94Z"/><path class="cls-5" d="M866.36,215.13v2.3H870v1.26h-3.62v5.17a2.54,2.54,0,0,0,.14.91,1.44,1.44,0,0,0,.39.58,1.41,1.41,0,0,0,.57.3,2.57,2.57,0,0,0,.68.09,5,5,0,0,0,.54,0l.55-.08.5-.09.38-.08.23,1.15a2.23,2.23,0,0,1-.49.21,5.16,5.16,0,0,1-.63.16,7.14,7.14,0,0,1-.73.1c-.25,0-.51,0-.76,0a3.79,3.79,0,0,1-1.18-.18,2.44,2.44,0,0,1-1-.57,2.7,2.7,0,0,1-.64-1,4.28,4.28,0,0,1-.23-1.5v-5.17h-2.5v-1.26h2.5v-2.3Z"/><path class="cls-5" d="M876.81,223.57l.42,1.15,2.9-7.29h1.82l-4.83,11a6.74,6.74,0,0,1-.43.78,4,4,0,0,1-.63.76,3.34,3.34,0,0,1-.86.59,2.58,2.58,0,0,1-1.13.24h-.25l-.28,0-.26,0-.2,0,.26-1.33h.17l.22,0h.39a1.07,1.07,0,0,0,.61-.18,2.32,2.32,0,0,0,.49-.44,3.43,3.43,0,0,0,.37-.53l.24-.45.65-1.27-4.1-9.06h1.82Z"/><path class="cls-5" d="M854,244.29h-4.27l-1,3.31h-1.63l4.13-12.8h1.36l4.06,12.8H855Zm-3.83-1.42h3.4l-1.69-5.55Z"/><path class="cls-5" d="M859,234.1h4.86V246.2h3.1v1.41h-8V246.2h3.23V235.52H859Z"/><path class="cls-5" d="M873.71,247.78a4.83,4.83,0,0,1-1.84-.34,4.18,4.18,0,0,1-1.44-1,4.38,4.38,0,0,1-.93-1.46,5,5,0,0,1-.33-1.84v-.37a5.45,5.45,0,0,1,.37-2.06,4.73,4.73,0,0,1,1-1.54,4.29,4.29,0,0,1,1.39-1,4,4,0,0,1,1.6-.33,4.25,4.25,0,0,1,1.8.36,3.55,3.55,0,0,1,1.28,1,4.19,4.19,0,0,1,.76,1.48,6.49,6.49,0,0,1,.25,1.85v.73h-6.79a3.76,3.76,0,0,0,.25,1.22,3.18,3.18,0,0,0,.62,1,2.83,2.83,0,0,0,.94.67,2.89,2.89,0,0,0,1.2.25,3.31,3.31,0,0,0,1.55-.35,3.36,3.36,0,0,0,1.13-.93l1,.77a3.84,3.84,0,0,1-.59.69,4.17,4.17,0,0,1-.82.58,4.58,4.58,0,0,1-1.05.41A5.07,5.07,0,0,1,873.71,247.78Zm-.21-8.53a2.41,2.41,0,0,0-1.72.71,3,3,0,0,0-.59.85,4,4,0,0,0-.34,1.16H876v-.12a3.67,3.67,0,0,0-.18-.94,2.64,2.64,0,0,0-.45-.83,2.27,2.27,0,0,0-.75-.6A2.36,2.36,0,0,0,873.5,239.25Z"/><path class="cls-5" d="M886.54,237.92H887l.47,0,.41.08.31.1-.22,1.59a8.69,8.69,0,0,0-.9-.15,7.94,7.94,0,0,0-.89,0,3.05,3.05,0,0,0-1.85.52,3,3,0,0,0-1,1.45v6.1h-1.63v-9.51h1.55l.08,1.51a4.37,4.37,0,0,1,1.39-1.23A3.74,3.74,0,0,1,886.54,237.92Z"/><path class="cls-5" d="M895,235.79v2.3h3.62v1.26H895v5.17a2.54,2.54,0,0,0,.14.91,1.44,1.44,0,0,0,.39.58,1.41,1.41,0,0,0,.57.3,2.57,2.57,0,0,0,.68.09,5,5,0,0,0,.54,0l.55-.08.5-.09.38-.08.23,1.15a2.23,2.23,0,0,1-.49.21,5.16,5.16,0,0,1-.63.16,7.14,7.14,0,0,1-.73.1c-.25,0-.51,0-.76,0a3.79,3.79,0,0,1-1.18-.18,2.44,2.44,0,0,1-1-.57,2.7,2.7,0,0,1-.64-1,4.28,4.28,0,0,1-.23-1.5v-5.17h-2.5v-1.26h2.5v-2.3Z"/></g></g></svg>